solid 
 facet normal -1.000000e+00  0.000000e+00  0.000000e+00
   outer loop
     vertex -1.000500e+04 -1.000500e+04  1.000500e+04
     vertex -1.000500e+04  1.000500e+04 -1.000500e+04
     vertex -1.000500e+04 -1.000500e+04 -1.000500e+04
   endloop
 endfacet
 facet normal -1.000000e+00  0.000000e+00  0.000000e+00
   outer loop
     vertex -1.000500e+04 -1.000500e+04  1.000500e+04
     vertex -1.000500e+04  1.000500e+04  1.000500e+04
     vertex -1.000500e+04  1.000500e+04 -1.000500e+04
   endloop
 endfacet
 facet normal  0.000000e+00 -1.000000e+00 -0.000000e+00
   outer loop
     vertex  1.000500e+04 -1.000500e+04  1.000500e+04
     vertex -1.000500e+04 -1.000500e+04 -1.000500e+04
     vertex  1.000500e+04 -1.000500e+04 -1.000500e+04
   endloop
 endfacet
 facet normal -0.000000e+00 -1.000000e+00  0.000000e+00
   outer loop
     vertex  1.000500e+04 -1.000500e+04  1.000500e+04
     vertex -1.000500e+04 -1.000500e+04  1.000500e+04
     vertex -1.000500e+04 -1.000500e+04 -1.000500e+04
   endloop
 endfacet
 facet normal  0.000000e+00  0.000000e+00  1.000000e+00
   outer loop
     vertex  1.000500e+04  1.000500e+04  1.000500e+04
     vertex -1.000500e+04  1.000500e+04  1.000500e+04
     vertex -1.000500e+04 -1.000500e+04  1.000500e+04
   endloop
 endfacet
 facet normal  0.000000e+00  0.000000e+00  1.000000e+00
   outer loop
     vertex  1.000500e+04  1.000500e+04  1.000500e+04
     vertex -1.000500e+04 -1.000500e+04  1.000500e+04
     vertex  1.000500e+04 -1.000500e+04  1.000500e+04
   endloop
 endfacet
 facet normal  0.000000e+00  1.000000e+00  0.000000e+00
   outer loop
     vertex  1.000500e+04  1.000500e+04  1.000500e+04
     vertex  1.000500e+04  1.000500e+04 -1.000500e+04
     vertex -1.000500e+04  1.000500e+04 -1.000500e+04
   endloop
 endfacet
 facet normal  0.000000e+00  1.000000e+00  0.000000e+00
   outer loop
     vertex  1.000500e+04  1.000500e+04  1.000500e+04
     vertex -1.000500e+04  1.000500e+04 -1.000500e+04
     vertex -1.000500e+04  1.000500e+04  1.000500e+04
   endloop
 endfacet
 facet normal -0.000000e+00  0.000000e+00 -1.000000e+00
   outer loop
     vertex  1.000500e+04  1.000500e+04 -1.000500e+04
     vertex -1.000500e+04 -1.000500e+04 -1.000500e+04
     vertex -1.000500e+04  1.000500e+04 -1.000500e+04
   endloop
 endfacet
 facet normal  0.000000e+00 -0.000000e+00 -1.000000e+00
   outer loop
     vertex  1.000500e+04  1.000500e+04 -1.000500e+04
     vertex  1.000500e+04 -1.000500e+04 -1.000500e+04
     vertex -1.000500e+04 -1.000500e+04 -1.000500e+04
   endloop
 endfacet
 facet normal  1.000000e+00  0.000000e+00  0.000000e+00
   outer loop
     vertex  1.000500e+04 -1.000500e+04  1.000500e+04
     vertex  1.000500e+04 -1.000500e+04 -1.000500e+04
     vertex  1.000500e+04  1.000500e+04 -1.000500e+04
   endloop
 endfacet
 facet normal  1.000000e+00 -0.000000e+00  0.000000e+00
   outer loop
     vertex  1.000500e+04 -1.000500e+04  1.000500e+04
     vertex  1.000500e+04  1.000500e+04 -1.000500e+04
     vertex  1.000500e+04  1.000500e+04  1.000500e+04
   endloop
 endfacet
 facet normal  1.000000e+00  0.000000e+00  0.000000e+00
   outer loop
     vertex -1.000000e+04 -1.000000e+04  1.000000e+04
     vertex -1.000000e+04 -1.000000e+04 -1.000000e+04
     vertex -1.000000e+04  1.000000e+04 -1.000000e+04
   endloop
 endfacet
 facet normal  1.000000e+00 -0.000000e+00  0.000000e+00
   outer loop
     vertex -1.000000e+04 -1.000000e+04  1.000000e+04
     vertex -1.000000e+04  1.000000e+04 -1.000000e+04
     vertex -1.000000e+04  1.000000e+04  1.000000e+04
   endloop
 endfacet
 facet normal  0.000000e+00  1.000000e+00  0.000000e+00
   outer loop
     vertex  1.000000e+04 -1.000000e+04  1.000000e+04
     vertex  1.000000e+04 -1.000000e+04 -1.000000e+04
     vertex -1.000000e+04 -1.000000e+04 -1.000000e+04
   endloop
 endfacet
 facet normal  0.000000e+00  1.000000e+00  0.000000e+00
   outer loop
     vertex  1.000000e+04 -1.000000e+04  1.000000e+04
     vertex -1.000000e+04 -1.000000e+04 -1.000000e+04
     vertex -1.000000e+04 -1.000000e+04  1.000000e+04
   endloop
 endfacet
 facet normal -0.000000e+00  0.000000e+00 -1.000000e+00
   outer loop
     vertex  1.000000e+04  1.000000e+04  1.000000e+04
     vertex -1.000000e+04 -1.000000e+04  1.000000e+04
     vertex -1.000000e+04  1.000000e+04  1.000000e+04
   endloop
 endfacet
 facet normal  0.000000e+00 -0.000000e+00 -1.000000e+00
   outer loop
     vertex  1.000000e+04  1.000000e+04  1.000000e+04
     vertex  1.000000e+04 -1.000000e+04  1.000000e+04
     vertex -1.000000e+04 -1.000000e+04  1.000000e+04
   endloop
 endfacet
 facet normal  0.000000e+00 -1.000000e+00 -0.000000e+00
   outer loop
     vertex  1.000000e+04  1.000000e+04  1.000000e+04
     vertex -1.000000e+04  1.000000e+04 -1.000000e+04
     vertex  1.000000e+04  1.000000e+04 -1.000000e+04
   endloop
 endfacet
 facet normal -0.000000e+00 -1.000000e+00  0.000000e+00
   outer loop
     vertex  1.000000e+04  1.000000e+04  1.000000e+04
     vertex -1.000000e+04  1.000000e+04  1.000000e+04
     vertex -1.000000e+04  1.000000e+04 -1.000000e+04
   endloop
 endfacet
 facet normal  0.000000e+00  0.000000e+00  1.000000e+00
   outer loop
     vertex  1.000000e+04  1.000000e+04 -1.000000e+04
     vertex -1.000000e+04  1.000000e+04 -1.000000e+04
     vertex -1.000000e+04 -1.000000e+04 -1.000000e+04
   endloop
 endfacet
 facet normal  0.000000e+00  0.000000e+00  1.000000e+00
   outer loop
     vertex  1.000000e+04  1.000000e+04 -1.000000e+04
     vertex -1.000000e+04 -1.000000e+04 -1.000000e+04
     vertex  1.000000e+04 -1.000000e+04 -1.000000e+04
   endloop
 endfacet
 facet normal -1.000000e+00  0.000000e+00  0.000000e+00
   outer loop
     vertex  1.000000e+04 -1.000000e+04  1.000000e+04
     vertex  1.000000e+04  1.000000e+04 -1.000000e+04
     vertex  1.000000e+04 -1.000000e+04 -1.000000e+04
   endloop
 endfacet
 facet normal -1.000000e+00  0.000000e+00  0.000000e+00
   outer loop
     vertex  1.000000e+04 -1.000000e+04  1.000000e+04
     vertex  1.000000e+04  1.000000e+04  1.000000e+04
     vertex  1.000000e+04  1.000000e+04 -1.000000e+04
   endloop
 endfacet
endsolid
