solid 
 facet normal -4.003058e-16  0.000000e+00  1.000000e+00
   outer loop
     vertex -1.800000e+01 -5.000000e+00 -5.000000e+01
     vertex -8.900000e+01  5.000000e+00 -5.000000e+01
     vertex -8.900000e+01 -5.000000e+00 -5.000000e+01
   endloop
 endfacet
 facet normal -4.003058e-16  0.000000e+00  1.000000e+00
   outer loop
     vertex -1.800000e+01 -5.000000e+00 -5.000000e+01
     vertex -1.800000e+01  5.000000e+00 -5.000000e+01
     vertex -8.900000e+01  5.000000e+00 -5.000000e+01
   endloop
 endfacet
 facet normal -8.881435e-02  0.000000e+00  9.960482e-01
   outer loop
     vertex -6.992051e+00 -5.000000e+00  1.004465e+02
     vertex -1.200000e+01  5.000000e+00  1.000000e+02
     vertex -1.200000e+01 -5.000000e+00  1.000000e+02
   endloop
 endfacet
 facet normal -8.881435e-02  0.000000e+00  9.960482e-01
   outer loop
     vertex -6.992051e+00 -5.000000e+00  1.004465e+02
     vertex -6.992051e+00  5.000000e+00  1.004465e+02
     vertex -1.200000e+01  5.000000e+00  1.000000e+02
   endloop
 endfacet
 facet normal -3.929385e-02  0.000000e+00  9.992277e-01
   outer loop
     vertex -6.992051e+00 -5.000000e+00  1.004465e+02
     vertex -1.968115e+00  5.000000e+00  1.006441e+02
     vertex -6.992051e+00  5.000000e+00  1.004465e+02
   endloop
 endfacet
 facet normal  1.032341e-02 -0.000000e+00  9.999467e-01
   outer loop
     vertex -1.968115e+00 -5.000000e+00  1.006441e+02
     vertex  3.059435e+00  5.000000e+00  1.005922e+02
     vertex -1.968115e+00  5.000000e+00  1.006441e+02
   endloop
 endfacet
 facet normal -3.929385e-02  0.000000e+00  9.992277e-01
   outer loop
     vertex -1.968115e+00 -5.000000e+00  1.006441e+02
     vertex -1.968115e+00  5.000000e+00  1.006441e+02
     vertex -6.992051e+00 -5.000000e+00  1.004465e+02
   endloop
 endfacet
 facet normal  1.032341e-02 -0.000000e+00  9.999467e-01
   outer loop
     vertex  3.059435e+00 -5.000000e+00  1.005922e+02
     vertex  3.059435e+00  5.000000e+00  1.005922e+02
     vertex -1.968115e+00 -5.000000e+00  1.006441e+02
   endloop
 endfacet
 facet normal  5.991525e-02 -0.000000e+00  9.982035e-01
   outer loop
     vertex  8.078221e+00 -5.000000e+00  1.002910e+02
     vertex  8.078221e+00  5.000000e+00  1.002910e+02
     vertex  3.059435e+00  5.000000e+00  1.005922e+02
   endloop
 endfacet
 facet normal  5.991525e-02  0.000000e+00  9.982035e-01
   outer loop
     vertex  8.078221e+00 -5.000000e+00  1.002910e+02
     vertex  3.059435e+00  5.000000e+00  1.005922e+02
     vertex  3.059435e+00 -5.000000e+00  1.005922e+02
   endloop
 endfacet
 facet normal  1.093596e-01 -0.000000e+00  9.940023e-01
   outer loop
     vertex  1.307588e+01 -5.000000e+00  9.974112e+01
     vertex  1.307588e+01  5.000000e+00  9.974112e+01
     vertex  8.078221e+00  5.000000e+00  1.002910e+02
   endloop
 endfacet
 facet normal  1.585346e-01 -0.000000e+00  9.873534e-01
   outer loop
     vertex  1.307588e+01 -5.000000e+00  9.974112e+01
     vertex  1.804012e+01  5.000000e+00  9.894403e+01
     vertex  1.307588e+01  5.000000e+00  9.974112e+01
   endloop
 endfacet
 facet normal  1.093596e-01  0.000000e+00  9.940023e-01
   outer loop
     vertex  1.307588e+01 -5.000000e+00  9.974112e+01
     vertex  8.078221e+00  5.000000e+00  1.002910e+02
     vertex  8.078221e+00 -5.000000e+00  1.002910e+02
   endloop
 endfacet
 facet normal  1.585346e-01 -0.000000e+00  9.873534e-01
   outer loop
     vertex  1.804012e+01 -5.000000e+00  9.894403e+01
     vertex  1.804012e+01  5.000000e+00  9.894403e+01
     vertex  1.307588e+01 -5.000000e+00  9.974112e+01
   endloop
 endfacet
 facet normal  2.073192e-01  0.000000e+00  9.782733e-01
   outer loop
     vertex  2.295870e+01 -5.000000e+00  9.790167e+01
     vertex  1.804012e+01  5.000000e+00  9.894403e+01
     vertex  1.804012e+01 -5.000000e+00  9.894403e+01
   endloop
 endfacet
 facet normal  2.073192e-01 -0.000000e+00  9.782733e-01
   outer loop
     vertex  2.295870e+01 -5.000000e+00  9.790167e+01
     vertex  2.295870e+01  5.000000e+00  9.790167e+01
     vertex  1.804012e+01  5.000000e+00  9.894403e+01
   endloop
 endfacet
 facet normal  2.555934e-01 -0.000000e+00  9.667844e-01
   outer loop
     vertex  2.781951e+01 -5.000000e+00  9.661659e+01
     vertex  2.781951e+01  5.000000e+00  9.661659e+01
     vertex  2.295870e+01  5.000000e+00  9.790167e+01
   endloop
 endfacet
 facet normal  2.555934e-01  0.000000e+00  9.667844e-01
   outer loop
     vertex  2.781951e+01 -5.000000e+00  9.661659e+01
     vertex  2.295870e+01  5.000000e+00  9.790167e+01
     vertex  2.295870e+01 -5.000000e+00  9.790167e+01
   endloop
 endfacet
 facet normal  3.032381e-01  0.000000e+00  9.529148e-01
   outer loop
     vertex  3.261060e+01 -5.000000e+00  9.509197e+01
     vertex  2.781951e+01  5.000000e+00  9.661659e+01
     vertex  2.781951e+01 -5.000000e+00  9.661659e+01
   endloop
 endfacet
 facet normal  3.032381e-01 -0.000000e+00  9.529148e-01
   outer loop
     vertex  3.261060e+01 -5.000000e+00  9.509197e+01
     vertex  3.261060e+01  5.000000e+00  9.509197e+01
     vertex  2.781951e+01  5.000000e+00  9.661659e+01
   endloop
 endfacet
 facet normal  3.501362e-01 -0.000000e+00  9.366988e-01
   outer loop
     vertex  3.732015e+01 -5.000000e+00  9.333155e+01
     vertex  3.732015e+01  5.000000e+00  9.333155e+01
     vertex  3.261060e+01  5.000000e+00  9.509197e+01
   endloop
 endfacet
 facet normal  3.501362e-01  0.000000e+00  9.366988e-01
   outer loop
     vertex  3.732015e+01 -5.000000e+00  9.333155e+01
     vertex  3.261060e+01  5.000000e+00  9.509197e+01
     vertex  3.261060e+01 -5.000000e+00  9.509197e+01
   endloop
 endfacet
 facet normal  3.961721e-01 -0.000000e+00  9.181763e-01
   outer loop
     vertex  4.193657e+01 -5.000000e+00  9.133967e+01
     vertex  4.193657e+01  5.000000e+00  9.133967e+01
     vertex  3.732015e+01  5.000000e+00  9.333155e+01
   endloop
 endfacet
 facet normal  3.961721e-01  0.000000e+00  9.181763e-01
   outer loop
     vertex  4.193657e+01 -5.000000e+00  9.133967e+01
     vertex  3.732015e+01  5.000000e+00  9.333155e+01
     vertex  3.732015e+01 -5.000000e+00  9.333155e+01
   endloop
 endfacet
 facet normal  4.412325e-01 -0.000000e+00  8.973928e-01
   outer loop
     vertex  4.644850e+01 -5.000000e+00  8.912123e+01
     vertex  4.644850e+01  5.000000e+00  8.912123e+01
     vertex  4.193657e+01  5.000000e+00  9.133967e+01
   endloop
 endfacet
 facet normal  4.412325e-01  0.000000e+00  8.973928e-01
   outer loop
     vertex  4.644850e+01 -5.000000e+00  8.912123e+01
     vertex  4.193657e+01  5.000000e+00  9.133967e+01
     vertex  4.193657e+01 -5.000000e+00  9.133967e+01
   endloop
 endfacet
 facet normal  4.852064e-01 -0.000000e+00  8.743996e-01
   outer loop
     vertex  5.084482e+01 -5.000000e+00  8.668170e+01
     vertex  5.084482e+01  5.000000e+00  8.668170e+01
     vertex  4.644850e+01  5.000000e+00  8.912123e+01
   endloop
 endfacet
 facet normal  4.852064e-01  0.000000e+00  8.743996e-01
   outer loop
     vertex  5.084482e+01 -5.000000e+00  8.668170e+01
     vertex  4.644850e+01  5.000000e+00  8.912123e+01
     vertex  4.644850e+01 -5.000000e+00  8.912123e+01
   endloop
 endfacet
 facet normal  5.279855e-01 -0.000000e+00  8.492534e-01
   outer loop
     vertex  5.511472e+01 -5.000000e+00  8.402708e+01
     vertex  5.511472e+01  5.000000e+00  8.402708e+01
     vertex  5.084482e+01  5.000000e+00  8.668170e+01
   endloop
 endfacet
 facet normal  5.279855e-01  0.000000e+00  8.492534e-01
   outer loop
     vertex  5.511472e+01 -5.000000e+00  8.402708e+01
     vertex  5.084482e+01  5.000000e+00  8.668170e+01
     vertex  5.084482e+01 -5.000000e+00  8.668170e+01
   endloop
 endfacet
 facet normal  5.694646e-01 -0.000000e+00  8.220159e-01
   outer loop
     vertex  5.924766e+01 -5.000000e+00  8.116392e+01
     vertex  5.924766e+01  5.000000e+00  8.116392e+01
     vertex  5.511472e+01  5.000000e+00  8.402708e+01
   endloop
 endfacet
 facet normal  6.095413e-01 -0.000000e+00  7.927543e-01
   outer loop
     vertex  5.924766e+01 -5.000000e+00  8.116392e+01
     vertex  6.323349e+01  5.000000e+00  7.809926e+01
     vertex  5.924766e+01  5.000000e+00  8.116392e+01
   endloop
 endfacet
 facet normal  5.694646e-01  0.000000e+00  8.220159e-01
   outer loop
     vertex  5.924766e+01 -5.000000e+00  8.116392e+01
     vertex  5.511472e+01  5.000000e+00  8.402708e+01
     vertex  5.511472e+01 -5.000000e+00  8.402708e+01
   endloop
 endfacet
 facet normal  6.095413e-01 -0.000000e+00  7.927543e-01
   outer loop
     vertex  6.323349e+01 -5.000000e+00  7.809926e+01
     vertex  6.323349e+01  5.000000e+00  7.809926e+01
     vertex  5.924766e+01 -5.000000e+00  8.116392e+01
   endloop
 endfacet
 facet normal  6.481172e-01 -0.000000e+00  7.615406e-01
   outer loop
     vertex  6.706237e+01 -5.000000e+00  7.484064e+01
     vertex  6.706237e+01  5.000000e+00  7.484064e+01
     vertex  6.323349e+01  5.000000e+00  7.809926e+01
   endloop
 endfacet
 facet normal  6.481172e-01  0.000000e+00  7.615406e-01
   outer loop
     vertex  6.706237e+01 -5.000000e+00  7.484064e+01
     vertex  6.323349e+01  5.000000e+00  7.809926e+01
     vertex  6.323349e+01 -5.000000e+00  7.809926e+01
   endloop
 endfacet
 facet normal  6.850971e-01 -0.000000e+00  7.284517e-01
   outer loop
     vertex  7.072490e+01 -5.000000e+00  7.139610e+01
     vertex  7.072490e+01  5.000000e+00  7.139610e+01
     vertex  6.706237e+01  5.000000e+00  7.484064e+01
   endloop
 endfacet
 facet normal  6.850971e-01  0.000000e+00  7.284517e-01
   outer loop
     vertex  7.072490e+01 -5.000000e+00  7.139610e+01
     vertex  6.706237e+01  5.000000e+00  7.484064e+01
     vertex  6.706237e+01 -5.000000e+00  7.484064e+01
   endloop
 endfacet
 facet normal  7.203901e-01 -0.000000e+00  6.935691e-01
   outer loop
     vertex  7.421204e+01 -5.000000e+00  6.777411e+01
     vertex  7.421204e+01  5.000000e+00  6.777411e+01
     vertex  7.072490e+01  5.000000e+00  7.139610e+01
   endloop
 endfacet
 facet normal  7.203901e-01  0.000000e+00  6.935691e-01
   outer loop
     vertex  7.421204e+01 -5.000000e+00  6.777411e+01
     vertex  7.072490e+01  5.000000e+00  7.139610e+01
     vertex  7.072490e+01 -5.000000e+00  7.139610e+01
   endloop
 endfacet
 facet normal  7.539092e-01 -0.000000e+00  6.569787e-01
   outer loop
     vertex  7.751521e+01 -5.000000e+00  6.398359e+01
     vertex  7.751521e+01  5.000000e+00  6.398359e+01
     vertex  7.421204e+01  5.000000e+00  6.777411e+01
   endloop
 endfacet
 facet normal  7.539092e-01  0.000000e+00  6.569787e-01
   outer loop
     vertex  7.751521e+01 -5.000000e+00  6.398359e+01
     vertex  7.421204e+01  5.000000e+00  6.777411e+01
     vertex  7.421204e+01 -5.000000e+00  6.777411e+01
   endloop
 endfacet
 facet normal  7.855718e-01 -0.000000e+00  6.187705e-01
   outer loop
     vertex  8.062627e+01 -5.000000e+00  6.003387e+01
     vertex  8.062627e+01  5.000000e+00  6.003387e+01
     vertex  7.751521e+01  5.000000e+00  6.398359e+01
   endloop
 endfacet
 facet normal  7.855718e-01  0.000000e+00  6.187705e-01
   outer loop
     vertex  8.062627e+01 -5.000000e+00  6.003387e+01
     vertex  7.751521e+01  5.000000e+00  6.398359e+01
     vertex  7.751521e+01 -5.000000e+00  6.398359e+01
   endloop
 endfacet
 facet normal  8.153001e-01 -0.000000e+00  5.790387e-01
   outer loop
     vertex  8.353757e+01 -5.000000e+00  5.593469e+01
     vertex  8.353757e+01  5.000000e+00  5.593469e+01
     vertex  8.062627e+01  5.000000e+00  6.003387e+01
   endloop
 endfacet
 facet normal  8.153001e-01  0.000000e+00  5.790387e-01
   outer loop
     vertex  8.353757e+01 -5.000000e+00  5.593469e+01
     vertex  8.062627e+01  5.000000e+00  6.003387e+01
     vertex  8.062627e+01 -5.000000e+00  6.003387e+01
   endloop
 endfacet
 facet normal  8.430208e-01 -0.000000e+00  5.378810e-01
   outer loop
     vertex  8.624194e+01 -5.000000e+00  5.169614e+01
     vertex  8.624194e+01  5.000000e+00  5.169614e+01
     vertex  8.353757e+01  5.000000e+00  5.593469e+01
   endloop
 endfacet
 facet normal  8.430208e-01  0.000000e+00  5.378810e-01
   outer loop
     vertex  8.624194e+01 -5.000000e+00  5.169614e+01
     vertex  8.353757e+01  5.000000e+00  5.593469e+01
     vertex  8.353757e+01 -5.000000e+00  5.593469e+01
   endloop
 endfacet
 facet normal  8.686656e-01 -0.000000e+00  4.953989e-01
   outer loop
     vertex  8.873272e+01 -5.000000e+00  4.732865e+01
     vertex  8.873272e+01  5.000000e+00  4.732865e+01
     vertex  8.624194e+01  5.000000e+00  5.169614e+01
   endloop
 endfacet
 facet normal  8.686656e-01  0.000000e+00  4.953989e-01
   outer loop
     vertex  8.873272e+01 -5.000000e+00  4.732865e+01
     vertex  8.624194e+01  5.000000e+00  5.169614e+01
     vertex  8.624194e+01 -5.000000e+00  5.169614e+01
   endloop
 endfacet
 facet normal  8.921715e-01 -0.000000e+00  4.516969e-01
   outer loop
     vertex  9.100377e+01 -5.000000e+00  4.284297e+01
     vertex  9.100377e+01  5.000000e+00  4.284297e+01
     vertex  8.873272e+01  5.000000e+00  4.732865e+01
   endloop
 endfacet
 facet normal  8.921715e-01  0.000000e+00  4.516969e-01
   outer loop
     vertex  9.100377e+01 -5.000000e+00  4.284297e+01
     vertex  8.873272e+01  5.000000e+00  4.732865e+01
     vertex  8.873272e+01 -5.000000e+00  4.732865e+01
   endloop
 endfacet
 facet normal  9.134805e-01 -0.000000e+00  4.068826e-01
   outer loop
     vertex  9.304950e+01 -5.000000e+00  3.825016e+01
     vertex  9.304950e+01  5.000000e+00  3.825016e+01
     vertex  9.100377e+01  5.000000e+00  4.284297e+01
   endloop
 endfacet
 facet normal  9.325401e-01 -0.000000e+00  3.610665e-01
   outer loop
     vertex  9.304950e+01 -5.000000e+00  3.825016e+01
     vertex  9.486488e+01  5.000000e+00  3.356151e+01
     vertex  9.304950e+01  5.000000e+00  3.825016e+01
   endloop
 endfacet
 facet normal  9.134805e-01  0.000000e+00  4.068826e-01
   outer loop
     vertex  9.304950e+01 -5.000000e+00  3.825016e+01
     vertex  9.100377e+01  5.000000e+00  4.284297e+01
     vertex  9.100377e+01 -5.000000e+00  4.284297e+01
   endloop
 endfacet
 facet normal  9.325401e-01 -0.000000e+00  3.610665e-01
   outer loop
     vertex  9.486488e+01 -5.000000e+00  3.356151e+01
     vertex  9.486488e+01  5.000000e+00  3.356151e+01
     vertex  9.304950e+01 -5.000000e+00  3.825016e+01
   endloop
 endfacet
 facet normal  9.493034e-01 -0.000000e+00  3.143612e-01
   outer loop
     vertex  9.644543e+01 -5.000000e+00  2.878859e+01
     vertex  9.644543e+01  5.000000e+00  2.878859e+01
     vertex  9.486488e+01  5.000000e+00  3.356151e+01
   endloop
 endfacet
 facet normal  9.493034e-01  0.000000e+00  3.143612e-01
   outer loop
     vertex  9.644543e+01 -5.000000e+00  2.878859e+01
     vertex  9.486488e+01  5.000000e+00  3.356151e+01
     vertex  9.486488e+01 -5.000000e+00  3.356151e+01
   endloop
 endfacet
 facet normal  9.637292e-01 -0.000000e+00  2.668819e-01
   outer loop
     vertex  9.778726e+01 -5.000000e+00  2.394313e+01
     vertex  9.778726e+01  5.000000e+00  2.394313e+01
     vertex  9.644543e+01  5.000000e+00  2.878859e+01
   endloop
 endfacet
 facet normal  9.757820e-01 -0.000000e+00  2.187454e-01
   outer loop
     vertex  9.778726e+01 -5.000000e+00  2.394313e+01
     vertex  9.888707e+01  5.000000e+00  1.903708e+01
     vertex  9.778726e+01  5.000000e+00  2.394313e+01
   endloop
 endfacet
 facet normal  9.637292e-01  0.000000e+00  2.668819e-01
   outer loop
     vertex  9.778726e+01 -5.000000e+00  2.394313e+01
     vertex  9.644543e+01  5.000000e+00  2.878859e+01
     vertex  9.644543e+01 -5.000000e+00  2.878859e+01
   endloop
 endfacet
 facet normal  9.757820e-01 -0.000000e+00  2.187454e-01
   outer loop
     vertex  9.888707e+01 -5.000000e+00  1.903708e+01
     vertex  9.888707e+01  5.000000e+00  1.903708e+01
     vertex  9.778726e+01 -5.000000e+00  2.394313e+01
   endloop
 endfacet
 facet normal  9.854319e-01  0.000000e+00  1.700703e-01
   outer loop
     vertex  9.974216e+01 -5.000000e+00  1.408250e+01
     vertex  9.888707e+01  5.000000e+00  1.903708e+01
     vertex  9.888707e+01 -5.000000e+00  1.903708e+01
   endloop
 endfacet
 facet normal  9.854319e-01 -0.000000e+00  1.700703e-01
   outer loop
     vertex  9.974216e+01 -5.000000e+00  1.408250e+01
     vertex  9.974216e+01  5.000000e+00  1.408250e+01
     vertex  9.888707e+01  5.000000e+00  1.903708e+01
   endloop
 endfacet
 facet normal  9.926554e-01  0.000000e+00  1.209764e-01
   outer loop
     vertex  1.003504e+02 -5.000000e+00  9.091614e+00
     vertex  9.974216e+01  5.000000e+00  1.408250e+01
     vertex  9.974216e+01 -5.000000e+00  1.408250e+01
   endloop
 endfacet
 facet normal  9.926554e-01 -0.000000e+00  1.209764e-01
   outer loop
     vertex  1.003504e+02 -5.000000e+00  9.091614e+00
     vertex  1.003504e+02  5.000000e+00  9.091614e+00
     vertex  9.974216e+01  5.000000e+00  1.408250e+01
   endloop
 endfacet
 facet normal  9.974345e-01 -0.000000e+00  7.158461e-02
   outer loop
     vertex  1.003504e+02 -5.000000e+00  9.091614e+00
     vertex  1.007103e+02  5.000000e+00  4.076694e+00
     vertex  1.003504e+02  5.000000e+00  9.091614e+00
   endloop
 endfacet
 facet normal  9.974345e-01 -0.000000e+00  7.158461e-02
   outer loop
     vertex  1.007103e+02 -5.000000e+00  4.076694e+00
     vertex  1.007103e+02  5.000000e+00  4.076694e+00
     vertex  1.003504e+02 -5.000000e+00  9.091614e+00
   endloop
 endfacet
 facet normal  9.997576e-01  0.000000e+00  2.201655e-02
   outer loop
     vertex  1.008210e+02 -5.000000e+00 -9.499057e-01
     vertex  1.007103e+02  5.000000e+00  4.076694e+00
     vertex  1.007103e+02 -5.000000e+00  4.076694e+00
   endloop
 endfacet
 facet normal  9.997576e-01 -0.000000e+00  2.201655e-02
   outer loop
     vertex  1.008210e+02 -5.000000e+00 -9.499057e-01
     vertex  1.008210e+02  5.000000e+00 -9.499057e-01
     vertex  1.007103e+02  5.000000e+00  4.076694e+00
   endloop
 endfacet
 facet normal  9.996189e-01  0.000000e+00 -2.760573e-02
   outer loop
     vertex  1.006822e+02 -5.000000e+00 -5.975808e+00
     vertex  1.008210e+02  5.000000e+00 -9.499057e-01
     vertex  1.008210e+02 -5.000000e+00 -9.499057e-01
   endloop
 endfacet
 facet normal  9.996189e-01  0.000000e+00 -2.760573e-02
   outer loop
     vertex  1.006822e+02 -5.000000e+00 -5.975808e+00
     vertex  1.006822e+02  5.000000e+00 -5.975808e+00
     vertex  1.008210e+02  5.000000e+00 -9.499057e-01
   endloop
 endfacet
 facet normal  9.970187e-01  0.000000e+00 -7.716003e-02
   outer loop
     vertex  1.002943e+02 -5.000000e+00 -1.098864e+01
     vertex  1.006822e+02  5.000000e+00 -5.975808e+00
     vertex  1.006822e+02 -5.000000e+00 -5.975808e+00
   endloop
 endfacet
 facet normal  9.970187e-01  0.000000e+00 -7.716003e-02
   outer loop
     vertex  1.002943e+02 -5.000000e+00 -1.098864e+01
     vertex  1.002943e+02  5.000000e+00 -1.098864e+01
     vertex  1.006822e+02  5.000000e+00 -5.975808e+00
   endloop
 endfacet
 facet normal  9.919635e-01  0.000000e+00 -1.265243e-01
   outer loop
     vertex  9.965813e+01 -5.000000e+00 -1.597605e+01
     vertex  1.002943e+02  5.000000e+00 -1.098864e+01
     vertex  1.002943e+02 -5.000000e+00 -1.098864e+01
   endloop
 endfacet
 facet normal  9.919635e-01  0.000000e+00 -1.265243e-01
   outer loop
     vertex  9.965813e+01 -5.000000e+00 -1.597605e+01
     vertex  9.965813e+01  5.000000e+00 -1.597605e+01
     vertex  1.002943e+02  5.000000e+00 -1.098864e+01
   endloop
 endfacet
 facet normal  9.844657e-01  0.000000e+00 -1.755771e-01
   outer loop
     vertex  9.965813e+01 -5.000000e+00 -1.597605e+01
     vertex  9.877536e+01  5.000000e+00 -2.092576e+01
     vertex  9.965813e+01  5.000000e+00 -1.597605e+01
   endloop
 endfacet
 facet normal  9.844657e-01  0.000000e+00 -1.755771e-01
   outer loop
     vertex  9.877536e+01 -5.000000e+00 -2.092576e+01
     vertex  9.877536e+01  5.000000e+00 -2.092576e+01
     vertex  9.965813e+01 -5.000000e+00 -1.597605e+01
   endloop
 endfacet
 facet normal  9.745437e-01  0.000000e+00 -2.241975e-01
   outer loop
     vertex  9.877536e+01 -5.000000e+00 -2.092576e+01
     vertex  9.764813e+01  5.000000e+00 -2.582559e+01
     vertex  9.877536e+01  5.000000e+00 -2.092576e+01
   endloop
 endfacet
 facet normal  9.745437e-01  0.000000e+00 -2.241975e-01
   outer loop
     vertex  9.764813e+01 -5.000000e+00 -2.582559e+01
     vertex  9.764813e+01  5.000000e+00 -2.582559e+01
     vertex  9.877536e+01 -5.000000e+00 -2.092576e+01
   endloop
 endfacet
 facet normal  9.622221e-01  0.000000e+00 -2.722658e-01
   outer loop
     vertex  9.627923e+01 -5.000000e+00 -3.066347e+01
     vertex  9.764813e+01  5.000000e+00 -2.582559e+01
     vertex  9.764813e+01 -5.000000e+00 -2.582559e+01
   endloop
 endfacet
 facet normal  9.622221e-01  0.000000e+00 -2.722658e-01
   outer loop
     vertex  9.627923e+01 -5.000000e+00 -3.066347e+01
     vertex  9.627923e+01  5.000000e+00 -3.066347e+01
     vertex  9.764813e+01  5.000000e+00 -2.582559e+01
   endloop
 endfacet
 facet normal  9.475310e-01  0.000000e+00 -3.196638e-01
   outer loop
     vertex  9.467202e+01 -5.000000e+00 -3.542749e+01
     vertex  9.627923e+01  5.000000e+00 -3.066347e+01
     vertex  9.627923e+01 -5.000000e+00 -3.066347e+01
   endloop
 endfacet
 facet normal  9.475310e-01  0.000000e+00 -3.196638e-01
   outer loop
     vertex  9.467202e+01 -5.000000e+00 -3.542749e+01
     vertex  9.467202e+01  5.000000e+00 -3.542749e+01
     vertex  9.627923e+01  5.000000e+00 -3.066347e+01
   endloop
 endfacet
 facet normal  9.305068e-01  0.000000e+00 -3.662745e-01
   outer loop
     vertex  9.467202e+01 -5.000000e+00 -3.542749e+01
     vertex  9.283046e+01  5.000000e+00 -4.010590e+01
     vertex  9.467202e+01  5.000000e+00 -3.542749e+01
   endloop
 endfacet
 facet normal  9.305068e-01  0.000000e+00 -3.662745e-01
   outer loop
     vertex  9.283046e+01 -5.000000e+00 -4.010590e+01
     vertex  9.283046e+01  5.000000e+00 -4.010590e+01
     vertex  9.467202e+01 -5.000000e+00 -3.542749e+01
   endloop
 endfacet
 facet normal  9.111913e-01  0.000000e+00 -4.119834e-01
   outer loop
     vertex  9.075908e+01 -5.000000e+00 -4.468721e+01
     vertex  9.075908e+01  5.000000e+00 -4.468721e+01
     vertex  9.283046e+01  5.000000e+00 -4.010590e+01
   endloop
 endfacet
 facet normal  9.111913e-01  0.000000e+00 -4.119834e-01
   outer loop
     vertex  9.075908e+01 -5.000000e+00 -4.468721e+01
     vertex  9.283046e+01  5.000000e+00 -4.010590e+01
     vertex  9.283046e+01 -5.000000e+00 -4.010590e+01
   endloop
 endfacet
 facet normal  8.896321e-01  0.000000e+00 -4.566778e-01
   outer loop
     vertex  9.075908e+01 -5.000000e+00 -4.468721e+01
     vertex  8.846299e+01  5.000000e+00 -4.916012e+01
     vertex  9.075908e+01  5.000000e+00 -4.468721e+01
   endloop
 endfacet
 facet normal  8.896321e-01  0.000000e+00 -4.566778e-01
   outer loop
     vertex  8.846299e+01 -5.000000e+00 -4.916012e+01
     vertex  8.846299e+01  5.000000e+00 -4.916012e+01
     vertex  9.075908e+01 -5.000000e+00 -4.468721e+01
   endloop
 endfacet
 facet normal  8.658823e-01  0.000000e+00 -5.002477e-01
   outer loop
     vertex  8.594783e+01 -5.000000e+00 -5.351362e+01
     vertex  8.594783e+01  5.000000e+00 -5.351362e+01
     vertex  8.846299e+01  5.000000e+00 -4.916012e+01
   endloop
 endfacet
 facet normal  8.400004e-01  0.000000e+00 -5.425858e-01
   outer loop
     vertex  8.594783e+01 -5.000000e+00 -5.351362e+01
     vertex  8.321981e+01  5.000000e+00 -5.773699e+01
     vertex  8.594783e+01  5.000000e+00 -5.351362e+01
   endloop
 endfacet
 facet normal  8.658823e-01  0.000000e+00 -5.002477e-01
   outer loop
     vertex  8.594783e+01 -5.000000e+00 -5.351362e+01
     vertex  8.846299e+01  5.000000e+00 -4.916012e+01
     vertex  8.846299e+01 -5.000000e+00 -4.916012e+01
   endloop
 endfacet
 facet normal  8.120500e-01  0.000000e+00 -5.835879e-01
   outer loop
     vertex  8.321981e+01 -5.000000e+00 -5.773699e+01
     vertex  8.028563e+01  5.000000e+00 -6.181983e+01
     vertex  8.321981e+01  5.000000e+00 -5.773699e+01
   endloop
 endfacet
 facet normal  8.400004e-01  0.000000e+00 -5.425858e-01
   outer loop
     vertex  8.321981e+01 -5.000000e+00 -5.773699e+01
     vertex  8.321981e+01  5.000000e+00 -5.773699e+01
     vertex  8.594783e+01 -5.000000e+00 -5.351362e+01
   endloop
 endfacet
 facet normal  8.120500e-01  0.000000e+00 -5.835879e-01
   outer loop
     vertex  8.028563e+01 -5.000000e+00 -6.181983e+01
     vertex  8.028563e+01  5.000000e+00 -6.181983e+01
     vertex  8.321981e+01 -5.000000e+00 -5.773699e+01
   endloop
 endfacet
 facet normal  7.821001e-01  0.000000e+00 -6.231529e-01
   outer loop
     vertex  7.715254e+01 -5.000000e+00 -6.575208e+01
     vertex  7.715254e+01  5.000000e+00 -6.575208e+01
     vertex  8.028563e+01  5.000000e+00 -6.181983e+01
   endloop
 endfacet
 facet normal  7.502243e-01  0.000000e+00 -6.611834e-01
   outer loop
     vertex  7.715254e+01 -5.000000e+00 -6.575208e+01
     vertex  7.382823e+01  5.000000e+00 -6.952408e+01
     vertex  7.715254e+01  5.000000e+00 -6.575208e+01
   endloop
 endfacet
 facet normal  7.821001e-01  0.000000e+00 -6.231529e-01
   outer loop
     vertex  7.715254e+01 -5.000000e+00 -6.575208e+01
     vertex  8.028563e+01  5.000000e+00 -6.181983e+01
     vertex  8.028563e+01 -5.000000e+00 -6.181983e+01
   endloop
 endfacet
 facet normal  7.165012e-01  0.000000e+00 -6.975859e-01
   outer loop
     vertex  7.382823e+01 -5.000000e+00 -6.952408e+01
     vertex  7.032089e+01  5.000000e+00 -7.312651e+01
     vertex  7.382823e+01  5.000000e+00 -6.952408e+01
   endloop
 endfacet
 facet normal  7.502243e-01  0.000000e+00 -6.611834e-01
   outer loop
     vertex  7.382823e+01 -5.000000e+00 -6.952408e+01
     vertex  7.382823e+01  5.000000e+00 -6.952408e+01
     vertex  7.715254e+01 -5.000000e+00 -6.575208e+01
   endloop
 endfacet
 facet normal  7.165012e-01  0.000000e+00 -6.975859e-01
   outer loop
     vertex  7.032089e+01 -5.000000e+00 -7.312651e+01
     vertex  7.032089e+01  5.000000e+00 -7.312651e+01
     vertex  7.382823e+01 -5.000000e+00 -6.952408e+01
   endloop
 endfacet
 facet normal  6.810137e-01  0.000000e+00 -7.322706e-01
   outer loop
     vertex  6.663917e+01 -5.000000e+00 -7.655053e+01
     vertex  6.663917e+01  5.000000e+00 -7.655053e+01
     vertex  7.032089e+01  5.000000e+00 -7.312651e+01
   endloop
 endfacet
 facet normal  6.438494e-01  0.000000e+00 -7.651523e-01
   outer loop
     vertex  6.663917e+01 -5.000000e+00 -7.655053e+01
     vertex  6.279212e+01  5.000000e+00 -7.978768e+01
     vertex  6.663917e+01  5.000000e+00 -7.655053e+01
   endloop
 endfacet
 facet normal  6.810137e-01  0.000000e+00 -7.322706e-01
   outer loop
     vertex  6.663917e+01 -5.000000e+00 -7.655053e+01
     vertex  7.032089e+01  5.000000e+00 -7.312651e+01
     vertex  7.032089e+01 -5.000000e+00 -7.312651e+01
   endloop
 endfacet
 facet normal  6.438494e-01  0.000000e+00 -7.651523e-01
   outer loop
     vertex  6.279212e+01 -5.000000e+00 -7.978768e+01
     vertex  6.279212e+01  5.000000e+00 -7.978768e+01
     vertex  6.663917e+01 -5.000000e+00 -7.655053e+01
   endloop
 endfacet
 facet normal  6.050996e-01  0.000000e+00 -7.961498e-01
   outer loop
     vertex  5.878922e+01 -5.000000e+00 -8.283002e+01
     vertex  5.878922e+01  5.000000e+00 -8.283002e+01
     vertex  6.279212e+01  5.000000e+00 -7.978768e+01
   endloop
 endfacet
 facet normal  6.050996e-01  0.000000e+00 -7.961498e-01
   outer loop
     vertex  5.878922e+01 -5.000000e+00 -8.283002e+01
     vertex  6.279212e+01  5.000000e+00 -7.978768e+01
     vertex  6.279212e+01 -5.000000e+00 -7.978768e+01
   endloop
 endfacet
 facet normal  5.648599e-01  0.000000e+00 -8.251868e-01
   outer loop
     vertex  5.464033e+01 -5.000000e+00 -8.567003e+01
     vertex  5.464033e+01  5.000000e+00 -8.567003e+01
     vertex  5.878922e+01  5.000000e+00 -8.283002e+01
   endloop
 endfacet
 facet normal  5.232292e-01  0.000000e+00 -8.521920e-01
   outer loop
     vertex  5.464033e+01 -5.000000e+00 -8.567003e+01
     vertex  5.035567e+01  5.000000e+00 -8.830073e+01
     vertex  5.464033e+01  5.000000e+00 -8.567003e+01
   endloop
 endfacet
 facet normal  5.648599e-01  0.000000e+00 -8.251868e-01
   outer loop
     vertex  5.464033e+01 -5.000000e+00 -8.567003e+01
     vertex  5.878922e+01  5.000000e+00 -8.283002e+01
     vertex  5.878922e+01 -5.000000e+00 -8.283002e+01
   endloop
 endfacet
 facet normal  4.803102e-01  0.000000e+00 -8.770987e-01
   outer loop
     vertex  5.035567e+01 -5.000000e+00 -8.830073e+01
     vertex  4.594577e+01  5.000000e+00 -9.071564e+01
     vertex  5.035567e+01  5.000000e+00 -8.830073e+01
   endloop
 endfacet
 facet normal  5.232292e-01  0.000000e+00 -8.521920e-01
   outer loop
     vertex  5.035567e+01 -5.000000e+00 -8.830073e+01
     vertex  5.035567e+01  5.000000e+00 -8.830073e+01
     vertex  5.464033e+01 -5.000000e+00 -8.567003e+01
   endloop
 endfacet
 facet normal  4.803102e-01  0.000000e+00 -8.770987e-01
   outer loop
     vertex  4.594577e+01 -5.000000e+00 -9.071564e+01
     vertex  4.594577e+01  5.000000e+00 -9.071564e+01
     vertex  5.035567e+01 -5.000000e+00 -8.830073e+01
   endloop
 endfacet
 facet normal  4.362084e-01  0.000000e+00 -8.998457e-01
   outer loop
     vertex  4.142151e+01 -5.000000e+00 -9.290882e+01
     vertex  4.594577e+01  5.000000e+00 -9.071564e+01
     vertex  4.594577e+01 -5.000000e+00 -9.071564e+01
   endloop
 endfacet
 facet normal  4.362084e-01  0.000000e+00 -8.998457e-01
   outer loop
     vertex  4.142151e+01 -5.000000e+00 -9.290882e+01
     vertex  4.142151e+01  5.000000e+00 -9.290882e+01
     vertex  4.594577e+01  5.000000e+00 -9.071564e+01
   endloop
 endfacet
 facet normal  3.910325e-01  0.000000e+00 -9.203769e-01
   outer loop
     vertex  4.142151e+01 -5.000000e+00 -9.290882e+01
     vertex  3.679403e+01  5.000000e+00 -9.487486e+01
     vertex  4.142151e+01  5.000000e+00 -9.290882e+01
   endloop
 endfacet
 facet normal  3.910325e-01  0.000000e+00 -9.203769e-01
   outer loop
     vertex  3.679403e+01 -5.000000e+00 -9.487486e+01
     vertex  3.679403e+01  5.000000e+00 -9.487486e+01
     vertex  4.142151e+01 -5.000000e+00 -9.290882e+01
   endloop
 endfacet
 facet normal  3.448938e-01  0.000000e+00 -9.386417e-01
   outer loop
     vertex  3.679403e+01 -5.000000e+00 -9.487486e+01
     vertex  3.207471e+01  5.000000e+00 -9.660892e+01
     vertex  3.679403e+01  5.000000e+00 -9.487486e+01
   endloop
 endfacet
 facet normal  3.448938e-01  0.000000e+00 -9.386417e-01
   outer loop
     vertex  3.207471e+01 -5.000000e+00 -9.660892e+01
     vertex  3.207471e+01  5.000000e+00 -9.660892e+01
     vertex  3.679403e+01 -5.000000e+00 -9.487486e+01
   endloop
 endfacet
 facet normal  2.979058e-01  0.000000e+00 -9.545953e-01
   outer loop
     vertex  2.727517e+01 -5.000000e+00 -9.810674e+01
     vertex  3.207471e+01  5.000000e+00 -9.660892e+01
     vertex  3.207471e+01 -5.000000e+00 -9.660892e+01
   endloop
 endfacet
 facet normal  2.979058e-01  0.000000e+00 -9.545953e-01
   outer loop
     vertex  2.727517e+01 -5.000000e+00 -9.810674e+01
     vertex  2.727517e+01  5.000000e+00 -9.810674e+01
     vertex  3.207471e+01  5.000000e+00 -9.660892e+01
   endloop
 endfacet
 facet normal  2.501842e-01  0.000000e+00 -9.681983e-01
   outer loop
     vertex  2.727517e+01 -5.000000e+00 -9.810674e+01
     vertex  2.240725e+01  5.000000e+00 -9.936462e+01
     vertex  2.727517e+01  5.000000e+00 -9.810674e+01
   endloop
 endfacet
 facet normal  2.501842e-01  0.000000e+00 -9.681983e-01
   outer loop
     vertex  2.240725e+01 -5.000000e+00 -9.936462e+01
     vertex  2.240725e+01  5.000000e+00 -9.936462e+01
     vertex  2.727517e+01 -5.000000e+00 -9.810674e+01
   endloop
 endfacet
 facet normal  2.018466e-01  0.000000e+00 -9.794172e-01
   outer loop
     vertex  1.748292e+01 -5.000000e+00 -1.003795e+02
     vertex  2.240725e+01  5.000000e+00 -9.936462e+01
     vertex  2.240725e+01 -5.000000e+00 -9.936462e+01
   endloop
 endfacet
 facet normal  2.018466e-01  0.000000e+00 -9.794172e-01
   outer loop
     vertex  1.748292e+01 -5.000000e+00 -1.003795e+02
     vertex  1.748292e+01  5.000000e+00 -1.003795e+02
     vertex  2.240725e+01  5.000000e+00 -9.936462e+01
   endloop
 endfacet
 facet normal  1.530119e-01  0.000000e+00 -9.882243e-01
   outer loop
     vertex  1.748292e+01 -5.000000e+00 -1.003795e+02
     vertex  1.251430e+01  5.000000e+00 -1.011488e+02
     vertex  1.748292e+01  5.000000e+00 -1.003795e+02
   endloop
 endfacet
 facet normal  1.530119e-01  0.000000e+00 -9.882243e-01
   outer loop
     vertex  1.251430e+01 -5.000000e+00 -1.011488e+02
     vertex  1.251430e+01  5.000000e+00 -1.011488e+02
     vertex  1.748292e+01 -5.000000e+00 -1.003795e+02
   endloop
 endfacet
 facet normal  1.038005e-01  0.000000e+00 -9.945981e-01
   outer loop
     vertex  7.513645e+00 -5.000000e+00 -1.016707e+02
     vertex  1.251430e+01  5.000000e+00 -1.011488e+02
     vertex  1.251430e+01 -5.000000e+00 -1.011488e+02
   endloop
 endfacet
 facet normal  1.038005e-01  0.000000e+00 -9.945981e-01
   outer loop
     vertex  7.513645e+00 -5.000000e+00 -1.016707e+02
     vertex  7.513645e+00  5.000000e+00 -1.016707e+02
     vertex  1.251430e+01  5.000000e+00 -1.011488e+02
   endloop
 endfacet
 facet normal  5.433347e-02  0.000000e+00 -9.985228e-01
   outer loop
     vertex  7.513645e+00 -5.000000e+00 -1.016707e+02
     vertex  2.493254e+00  5.000000e+00 -1.019439e+02
     vertex  7.513645e+00  5.000000e+00 -1.016707e+02
   endloop
 endfacet
 facet normal  5.433347e-02  0.000000e+00 -9.985228e-01
   outer loop
     vertex  2.493254e+00 -5.000000e+00 -1.019439e+02
     vertex  2.493254e+00  5.000000e+00 -1.019439e+02
     vertex  7.513645e+00 -5.000000e+00 -1.016707e+02
   endloop
 endfacet
 facet normal  4.732663e-03  0.000000e+00 -9.999888e-01
   outer loop
     vertex  2.493254e+00 -5.000000e+00 -1.019439e+02
     vertex -2.534509e+00  5.000000e+00 -1.019676e+02
     vertex  2.493254e+00  5.000000e+00 -1.019439e+02
   endloop
 endfacet
 facet normal  4.732663e-03  0.000000e+00 -9.999888e-01
   outer loop
     vertex -2.534509e+00 -5.000000e+00 -1.019676e+02
     vertex -2.534509e+00  5.000000e+00 -1.019676e+02
     vertex  2.493254e+00 -5.000000e+00 -1.019439e+02
   endloop
 endfacet
 facet normal -4.487980e-02  0.000000e+00 -9.989924e-01
   outer loop
     vertex -2.534509e+00 -5.000000e+00 -1.019676e+02
     vertex -7.557261e+00  5.000000e+00 -1.017420e+02
     vertex -2.534509e+00  5.000000e+00 -1.019676e+02
   endloop
 endfacet
 facet normal -4.487980e-02  0.000000e+00 -9.989924e-01
   outer loop
     vertex -7.557261e+00 -5.000000e+00 -1.017420e+02
     vertex -7.557261e+00  5.000000e+00 -1.017420e+02
     vertex -2.534509e+00 -5.000000e+00 -1.019676e+02
   endloop
 endfacet
 facet normal -9.438175e-02  0.000000e+00 -9.955361e-01
   outer loop
     vertex -1.256264e+01 -5.000000e+00 -1.012675e+02
     vertex -7.557261e+00  5.000000e+00 -1.017420e+02
     vertex -7.557261e+00 -5.000000e+00 -1.017420e+02
   endloop
 endfacet
 facet normal -9.438175e-02  0.000000e+00 -9.955361e-01
   outer loop
     vertex -1.256264e+01 -5.000000e+00 -1.012675e+02
     vertex -1.256264e+01  5.000000e+00 -1.012675e+02
     vertex -7.557261e+00  5.000000e+00 -1.017420e+02
   endloop
 endfacet
 facet normal -1.436513e-01  0.000000e+00 -9.896284e-01
   outer loop
     vertex -1.256264e+01 -5.000000e+00 -1.012675e+02
     vertex -1.753831e+01  5.000000e+00 -1.005452e+02
     vertex -1.256264e+01  5.000000e+00 -1.012675e+02
   endloop
 endfacet
 facet normal -1.436513e-01  0.000000e+00 -9.896284e-01
   outer loop
     vertex -1.753831e+01 -5.000000e+00 -1.005452e+02
     vertex -1.753831e+01  5.000000e+00 -1.005452e+02
     vertex -1.256264e+01 -5.000000e+00 -1.012675e+02
   endloop
 endfacet
 facet normal -1.925671e-01  0.000000e+00 -9.812838e-01
   outer loop
     vertex -1.753831e+01 -5.000000e+00 -1.005452e+02
     vertex -2.247202e+01  5.000000e+00 -9.957702e+01
     vertex -1.753831e+01  5.000000e+00 -1.005452e+02
   endloop
 endfacet
 facet normal -1.925671e-01  0.000000e+00 -9.812838e-01
   outer loop
     vertex -2.247202e+01 -5.000000e+00 -9.957702e+01
     vertex -2.247202e+01  5.000000e+00 -9.957702e+01
     vertex -1.753831e+01 -5.000000e+00 -1.005452e+02
   endloop
 endfacet
 facet normal -2.410088e-01  0.000000e+00 -9.705229e-01
   outer loop
     vertex -2.735164e+01 -5.000000e+00 -9.836527e+01
     vertex -2.247202e+01  5.000000e+00 -9.957702e+01
     vertex -2.247202e+01 -5.000000e+00 -9.957702e+01
   endloop
 endfacet
 facet normal -2.410088e-01  0.000000e+00 -9.705229e-01
   outer loop
     vertex -2.735164e+01 -5.000000e+00 -9.836527e+01
     vertex -2.735164e+01  5.000000e+00 -9.836527e+01
     vertex -2.247202e+01  5.000000e+00 -9.957702e+01
   endloop
 endfacet
 facet normal -2.888570e-01  0.000000e+00 -9.573723e-01
   outer loop
     vertex -2.735164e+01 -5.000000e+00 -9.836527e+01
     vertex -3.216513e+01  5.000000e+00 -9.691295e+01
     vertex -2.735164e+01  5.000000e+00 -9.836527e+01
   endloop
 endfacet
 facet normal -2.888570e-01  0.000000e+00 -9.573723e-01
   outer loop
     vertex -3.216513e+01 -5.000000e+00 -9.691295e+01
     vertex -3.216513e+01  5.000000e+00 -9.691295e+01
     vertex -2.735164e+01 -5.000000e+00 -9.836527e+01
   endloop
 endfacet
 facet normal -3.359939e-01  0.000000e+00 -9.418642e-01
   outer loop
     vertex -3.216513e+01 -5.000000e+00 -9.691295e+01
     vertex -3.690065e+01  5.000000e+00 -9.522363e+01
     vertex -3.216513e+01  5.000000e+00 -9.691295e+01
   endloop
 endfacet
 facet normal -3.359939e-01  0.000000e+00 -9.418642e-01
   outer loop
     vertex -3.690065e+01 -5.000000e+00 -9.522363e+01
     vertex -3.690065e+01  5.000000e+00 -9.522363e+01
     vertex -3.216513e+01 -5.000000e+00 -9.691295e+01
   endloop
 endfacet
 facet normal -3.823034e-01  0.000000e+00 -9.240368e-01
   outer loop
     vertex -3.690065e+01 -5.000000e+00 -9.522363e+01
     vertex -4.154654e+01  5.000000e+00 -9.330148e+01
     vertex -3.690065e+01  5.000000e+00 -9.522363e+01
   endloop
 endfacet
 facet normal -3.823034e-01  0.000000e+00 -9.240368e-01
   outer loop
     vertex -4.154654e+01 -5.000000e+00 -9.330148e+01
     vertex -4.154654e+01  5.000000e+00 -9.330148e+01
     vertex -3.690065e+01 -5.000000e+00 -9.522363e+01
   endloop
 endfacet
 facet normal -4.276716e-01  0.000000e+00 -9.039342e-01
   outer loop
     vertex -4.609136e+01 -5.000000e+00 -9.115123e+01
     vertex -4.609136e+01  5.000000e+00 -9.115123e+01
     vertex -4.154654e+01  5.000000e+00 -9.330148e+01
   endloop
 endfacet
 facet normal -4.276716e-01  0.000000e+00 -9.039342e-01
   outer loop
     vertex -4.609136e+01 -5.000000e+00 -9.115123e+01
     vertex -4.154654e+01  5.000000e+00 -9.330148e+01
     vertex -4.154654e+01 -5.000000e+00 -9.330148e+01
   endloop
 endfacet
 facet normal -4.719867e-01  0.000000e+00 -8.816057e-01
   outer loop
     vertex -4.609136e+01 -5.000000e+00 -9.115123e+01
     vertex -5.052391e+01  5.000000e+00 -8.877816e+01
     vertex -4.609136e+01  5.000000e+00 -9.115123e+01
   endloop
 endfacet
 facet normal -5.151396e-01  0.000000e+00 -8.571063e-01
   outer loop
     vertex -5.052391e+01 -5.000000e+00 -8.877816e+01
     vertex -5.483329e+01  5.000000e+00 -8.618814e+01
     vertex -5.052391e+01  5.000000e+00 -8.877816e+01
   endloop
 endfacet
 facet normal -4.719867e-01  0.000000e+00 -8.816057e-01
   outer loop
     vertex -5.052391e+01 -5.000000e+00 -8.877816e+01
     vertex -5.052391e+01  5.000000e+00 -8.877816e+01
     vertex -4.609136e+01 -5.000000e+00 -9.115123e+01
   endloop
 endfacet
 facet normal -5.151396e-01  0.000000e+00 -8.571063e-01
   outer loop
     vertex -5.483329e+01 -5.000000e+00 -8.618814e+01
     vertex -5.483329e+01  5.000000e+00 -8.618814e+01
     vertex -5.052391e+01 -5.000000e+00 -8.877816e+01
   endloop
 endfacet
 facet normal -5.570240e-01  0.000000e+00 -8.304964e-01
   outer loop
     vertex -5.900887e+01 -5.000000e+00 -8.338752e+01
     vertex -5.900887e+01  5.000000e+00 -8.338752e+01
     vertex -5.483329e+01  5.000000e+00 -8.618814e+01
   endloop
 endfacet
 facet normal -5.570240e-01  0.000000e+00 -8.304964e-01
   outer loop
     vertex -5.900887e+01 -5.000000e+00 -8.338752e+01
     vertex -5.483329e+01  5.000000e+00 -8.618814e+01
     vertex -5.483329e+01 -5.000000e+00 -8.618814e+01
   endloop
 endfacet
 facet normal -5.975368e-01  0.000000e+00 -8.018415e-01
   outer loop
     vertex -6.304039e+01 -5.000000e+00 -8.038321e+01
     vertex -6.304039e+01  5.000000e+00 -8.038321e+01
     vertex -5.900887e+01  5.000000e+00 -8.338752e+01
   endloop
 endfacet
 facet normal -6.365782e-01  0.000000e+00 -7.712122e-01
   outer loop
     vertex -6.304039e+01 -5.000000e+00 -8.038321e+01
     vertex -6.691790e+01  5.000000e+00 -7.718261e+01
     vertex -6.304039e+01  5.000000e+00 -8.038321e+01
   endloop
 endfacet
 facet normal -5.975368e-01  0.000000e+00 -8.018415e-01
   outer loop
     vertex -6.304039e+01 -5.000000e+00 -8.038321e+01
     vertex -5.900887e+01  5.000000e+00 -8.338752e+01
     vertex -5.900887e+01 -5.000000e+00 -8.338752e+01
   endloop
 endfacet
 facet normal -6.365782e-01  0.000000e+00 -7.712122e-01
   outer loop
     vertex -6.691790e+01 -5.000000e+00 -7.718261e+01
     vertex -6.691790e+01  5.000000e+00 -7.718261e+01
     vertex -6.304039e+01 -5.000000e+00 -8.038321e+01
   endloop
 endfacet
 facet normal -6.740521e-01  0.000000e+00 -7.386838e-01
   outer loop
     vertex -7.063187e+01 -5.000000e+00 -7.379360e+01
     vertex -6.691790e+01  5.000000e+00 -7.718261e+01
     vertex -6.691790e+01 -5.000000e+00 -7.718261e+01
   endloop
 endfacet
 facet normal -6.740521e-01  0.000000e+00 -7.386838e-01
   outer loop
     vertex -7.063187e+01 -5.000000e+00 -7.379360e+01
     vertex -7.063187e+01  5.000000e+00 -7.379360e+01
     vertex -6.691790e+01  5.000000e+00 -7.718261e+01
   endloop
 endfacet
 facet normal -7.098663e-01  0.000000e+00 -7.043365e-01
   outer loop
     vertex -7.063187e+01 -5.000000e+00 -7.379360e+01
     vertex -7.417315e+01  5.000000e+00 -7.022452e+01
     vertex -7.063187e+01  5.000000e+00 -7.379360e+01
   endloop
 endfacet
 facet normal -7.098663e-01  0.000000e+00 -7.043365e-01
   outer loop
     vertex -7.417315e+01 -5.000000e+00 -7.022452e+01
     vertex -7.417315e+01  5.000000e+00 -7.022452e+01
     vertex -7.063187e+01 -5.000000e+00 -7.379360e+01
   endloop
 endfacet
 facet normal -7.439324e-01  0.000000e+00 -6.682548e-01
   outer loop
     vertex -7.417315e+01 -5.000000e+00 -7.022452e+01
     vertex -7.753301e+01  5.000000e+00 -6.648417e+01
     vertex -7.417315e+01  5.000000e+00 -7.022452e+01
   endloop
 endfacet
 facet normal -7.439324e-01  0.000000e+00 -6.682548e-01
   outer loop
     vertex -7.753301e+01 -5.000000e+00 -6.648417e+01
     vertex -7.753301e+01  5.000000e+00 -6.648417e+01
     vertex -7.417315e+01 -5.000000e+00 -7.022452e+01
   endloop
 endfacet
 facet normal -7.761668e-01  0.000000e+00 -6.305277e-01
   outer loop
     vertex -8.070319e+01 -5.000000e+00 -6.258174e+01
     vertex -7.753301e+01  5.000000e+00 -6.648417e+01
     vertex -7.753301e+01 -5.000000e+00 -6.648417e+01
   endloop
 endfacet
 facet normal -7.761668e-01  0.000000e+00 -6.305277e-01
   outer loop
     vertex -8.070319e+01 -5.000000e+00 -6.258174e+01
     vertex -8.070319e+01  5.000000e+00 -6.258174e+01
     vertex -7.753301e+01  5.000000e+00 -6.648417e+01
   endloop
 endfacet
 facet normal -8.064898e-01  0.000000e+00 -5.912479e-01
   outer loop
     vertex -8.070319e+01 -5.000000e+00 -6.258174e+01
     vertex -8.367588e+01  5.000000e+00 -5.852686e+01
     vertex -8.070319e+01  5.000000e+00 -6.258174e+01
   endloop
 endfacet
 facet normal -8.064898e-01  0.000000e+00 -5.912479e-01
   outer loop
     vertex -8.367588e+01 -5.000000e+00 -5.852686e+01
     vertex -8.367588e+01  5.000000e+00 -5.852686e+01
     vertex -8.070319e+01 -5.000000e+00 -6.258174e+01
   endloop
 endfacet
 facet normal -8.348271e-01  0.000000e+00 -5.505123e-01
   outer loop
     vertex -8.644375e+01 -5.000000e+00 -5.432950e+01
     vertex -8.367588e+01  5.000000e+00 -5.852686e+01
     vertex -8.367588e+01 -5.000000e+00 -5.852686e+01
   endloop
 endfacet
 facet normal -8.348271e-01  0.000000e+00 -5.505123e-01
   outer loop
     vertex -8.644375e+01 -5.000000e+00 -5.432950e+01
     vertex -8.644375e+01  5.000000e+00 -5.432950e+01
     vertex -8.367588e+01  5.000000e+00 -5.852686e+01
   endloop
 endfacet
 facet normal -8.611086e-01  0.000000e+00 -5.084211e-01
   outer loop
     vertex -8.644375e+01 -5.000000e+00 -5.432950e+01
     vertex -8.900000e+01  5.000000e+00 -5.000000e+01
     vertex -8.644375e+01  5.000000e+00 -5.432950e+01
   endloop
 endfacet
 facet normal -8.611086e-01  0.000000e+00 -5.084211e-01
   outer loop
     vertex -8.900000e+01 -5.000000e+00 -5.000000e+01
     vertex -8.900000e+01  5.000000e+00 -5.000000e+01
     vertex -8.644375e+01 -5.000000e+00 -5.432950e+01
   endloop
 endfacet
 facet normal -8.574929e-01  0.000000e+00  5.144958e-01
   outer loop
     vertex  3.000000e+01 -5.000000e+00  3.000000e+01
     vertex  3.000000e+01  5.000000e+00  3.000000e+01
     vertex -1.800000e+01  5.000000e+00 -5.000000e+01
   endloop
 endfacet
 facet normal -8.574929e-01  0.000000e+00  5.144958e-01
   outer loop
     vertex  3.000000e+01 -5.000000e+00  3.000000e+01
     vertex -1.800000e+01  5.000000e+00 -5.000000e+01
     vertex -1.800000e+01 -5.000000e+00 -5.000000e+01
   endloop
 endfacet
 facet normal  0.000000e+00  1.000000e+00  0.000000e+00
   outer loop
     vertex -1.800000e+01  5.000000e+00 -5.000000e+01
     vertex  2.727517e+01  5.000000e+00 -9.810674e+01
     vertex  2.240725e+01  5.000000e+00 -9.936462e+01
   endloop
 endfacet
 facet normal  0.000000e+00  1.000000e+00  0.000000e+00
   outer loop
     vertex -1.800000e+01  5.000000e+00 -5.000000e+01
     vertex  2.240725e+01  5.000000e+00 -9.936462e+01
     vertex  1.748292e+01  5.000000e+00 -1.003795e+02
   endloop
 endfacet
 facet normal  0.000000e+00  1.000000e+00  0.000000e+00
   outer loop
     vertex -1.800000e+01  5.000000e+00 -5.000000e+01
     vertex  1.748292e+01  5.000000e+00 -1.003795e+02
     vertex  1.251430e+01  5.000000e+00 -1.011488e+02
   endloop
 endfacet
 facet normal  0.000000e+00  1.000000e+00  0.000000e+00
   outer loop
     vertex -1.800000e+01  5.000000e+00 -5.000000e+01
     vertex  1.251430e+01  5.000000e+00 -1.011488e+02
     vertex  7.513645e+00  5.000000e+00 -1.016707e+02
   endloop
 endfacet
 facet normal  0.000000e+00  1.000000e+00  0.000000e+00
   outer loop
     vertex -1.800000e+01  5.000000e+00 -5.000000e+01
     vertex  7.513645e+00  5.000000e+00 -1.016707e+02
     vertex  2.493254e+00  5.000000e+00 -1.019439e+02
   endloop
 endfacet
 facet normal  0.000000e+00  1.000000e+00  0.000000e+00
   outer loop
     vertex -1.800000e+01  5.000000e+00 -5.000000e+01
     vertex  2.493254e+00  5.000000e+00 -1.019439e+02
     vertex -2.534509e+00  5.000000e+00 -1.019676e+02
   endloop
 endfacet
 facet normal  0.000000e+00  1.000000e+00  0.000000e+00
   outer loop
     vertex -1.800000e+01  5.000000e+00 -5.000000e+01
     vertex -2.534509e+00  5.000000e+00 -1.019676e+02
     vertex -7.557261e+00  5.000000e+00 -1.017420e+02
   endloop
 endfacet
 facet normal  0.000000e+00  1.000000e+00  0.000000e+00
   outer loop
     vertex -1.800000e+01  5.000000e+00 -5.000000e+01
     vertex -7.557261e+00  5.000000e+00 -1.017420e+02
     vertex -1.256264e+01  5.000000e+00 -1.012675e+02
   endloop
 endfacet
 facet normal  0.000000e+00  1.000000e+00  0.000000e+00
   outer loop
     vertex -1.800000e+01  5.000000e+00 -5.000000e+01
     vertex -1.256264e+01  5.000000e+00 -1.012675e+02
     vertex -1.753831e+01  5.000000e+00 -1.005452e+02
   endloop
 endfacet
 facet normal  0.000000e+00  1.000000e+00  0.000000e+00
   outer loop
     vertex -1.800000e+01  5.000000e+00 -5.000000e+01
     vertex -1.753831e+01  5.000000e+00 -1.005452e+02
     vertex -2.247202e+01  5.000000e+00 -9.957702e+01
   endloop
 endfacet
 facet normal  0.000000e+00  1.000000e+00  0.000000e+00
   outer loop
     vertex -1.800000e+01  5.000000e+00 -5.000000e+01
     vertex -2.247202e+01  5.000000e+00 -9.957702e+01
     vertex -2.735164e+01  5.000000e+00 -9.836527e+01
   endloop
 endfacet
 facet normal  0.000000e+00  1.000000e+00  0.000000e+00
   outer loop
     vertex -1.800000e+01  5.000000e+00 -5.000000e+01
     vertex -2.735164e+01  5.000000e+00 -9.836527e+01
     vertex -3.216513e+01  5.000000e+00 -9.691295e+01
   endloop
 endfacet
 facet normal  0.000000e+00  1.000000e+00  0.000000e+00
   outer loop
     vertex -1.800000e+01  5.000000e+00 -5.000000e+01
     vertex -3.216513e+01  5.000000e+00 -9.691295e+01
     vertex -3.690065e+01  5.000000e+00 -9.522363e+01
   endloop
 endfacet
 facet normal  0.000000e+00  1.000000e+00  0.000000e+00
   outer loop
     vertex -1.800000e+01  5.000000e+00 -5.000000e+01
     vertex -3.690065e+01  5.000000e+00 -9.522363e+01
     vertex -4.154654e+01  5.000000e+00 -9.330148e+01
   endloop
 endfacet
 facet normal  0.000000e+00  1.000000e+00  0.000000e+00
   outer loop
     vertex -1.800000e+01  5.000000e+00 -5.000000e+01
     vertex -4.154654e+01  5.000000e+00 -9.330148e+01
     vertex -4.609136e+01  5.000000e+00 -9.115123e+01
   endloop
 endfacet
 facet normal  0.000000e+00  1.000000e+00  0.000000e+00
   outer loop
     vertex -1.800000e+01  5.000000e+00 -5.000000e+01
     vertex -4.609136e+01  5.000000e+00 -9.115123e+01
     vertex -5.052391e+01  5.000000e+00 -8.877816e+01
   endloop
 endfacet
 facet normal  0.000000e+00  1.000000e+00  0.000000e+00
   outer loop
     vertex -1.800000e+01  5.000000e+00 -5.000000e+01
     vertex -5.052391e+01  5.000000e+00 -8.877816e+01
     vertex -5.483329e+01  5.000000e+00 -8.618814e+01
   endloop
 endfacet
 facet normal  0.000000e+00  1.000000e+00  0.000000e+00
   outer loop
     vertex -1.800000e+01  5.000000e+00 -5.000000e+01
     vertex -5.483329e+01  5.000000e+00 -8.618814e+01
     vertex -5.900887e+01  5.000000e+00 -8.338752e+01
   endloop
 endfacet
 facet normal  0.000000e+00  1.000000e+00  0.000000e+00
   outer loop
     vertex -1.800000e+01  5.000000e+00 -5.000000e+01
     vertex -5.900887e+01  5.000000e+00 -8.338752e+01
     vertex -6.304039e+01  5.000000e+00 -8.038321e+01
   endloop
 endfacet
 facet normal  0.000000e+00  1.000000e+00  0.000000e+00
   outer loop
     vertex -1.800000e+01  5.000000e+00 -5.000000e+01
     vertex -6.304039e+01  5.000000e+00 -8.038321e+01
     vertex -6.691790e+01  5.000000e+00 -7.718261e+01
   endloop
 endfacet
 facet normal  0.000000e+00  1.000000e+00  0.000000e+00
   outer loop
     vertex -1.800000e+01  5.000000e+00 -5.000000e+01
     vertex -6.691790e+01  5.000000e+00 -7.718261e+01
     vertex -7.063187e+01  5.000000e+00 -7.379360e+01
   endloop
 endfacet
 facet normal  0.000000e+00  1.000000e+00  0.000000e+00
   outer loop
     vertex -1.800000e+01  5.000000e+00 -5.000000e+01
     vertex -7.063187e+01  5.000000e+00 -7.379360e+01
     vertex -7.417315e+01  5.000000e+00 -7.022452e+01
   endloop
 endfacet
 facet normal  0.000000e+00  1.000000e+00  0.000000e+00
   outer loop
     vertex -1.800000e+01  5.000000e+00 -5.000000e+01
     vertex -7.417315e+01  5.000000e+00 -7.022452e+01
     vertex -7.753301e+01  5.000000e+00 -6.648417e+01
   endloop
 endfacet
 facet normal  0.000000e+00  1.000000e+00  0.000000e+00
   outer loop
     vertex -1.800000e+01  5.000000e+00 -5.000000e+01
     vertex -7.753301e+01  5.000000e+00 -6.648417e+01
     vertex -8.070319e+01  5.000000e+00 -6.258174e+01
   endloop
 endfacet
 facet normal  0.000000e+00  1.000000e+00  0.000000e+00
   outer loop
     vertex -1.800000e+01  5.000000e+00 -5.000000e+01
     vertex -8.070319e+01  5.000000e+00 -6.258174e+01
     vertex -8.367588e+01  5.000000e+00 -5.852686e+01
   endloop
 endfacet
 facet normal  0.000000e+00  1.000000e+00  0.000000e+00
   outer loop
     vertex -1.800000e+01  5.000000e+00 -5.000000e+01
     vertex -8.367588e+01  5.000000e+00 -5.852686e+01
     vertex -8.644375e+01  5.000000e+00 -5.432950e+01
   endloop
 endfacet
 facet normal  0.000000e+00  1.000000e+00  0.000000e+00
   outer loop
     vertex -1.800000e+01  5.000000e+00 -5.000000e+01
     vertex -8.644375e+01  5.000000e+00 -5.432950e+01
     vertex -8.900000e+01  5.000000e+00 -5.000000e+01
   endloop
 endfacet
 facet normal  0.000000e+00  1.000000e+00  0.000000e+00
   outer loop
     vertex  3.207471e+01  5.000000e+00 -9.660892e+01
     vertex  2.727517e+01  5.000000e+00 -9.810674e+01
     vertex -1.800000e+01  5.000000e+00 -5.000000e+01
   endloop
 endfacet
 facet normal  0.000000e+00  1.000000e+00  0.000000e+00
   outer loop
     vertex  3.679403e+01  5.000000e+00 -9.487486e+01
     vertex  3.207471e+01  5.000000e+00 -9.660892e+01
     vertex -1.800000e+01  5.000000e+00 -5.000000e+01
   endloop
 endfacet
 facet normal  0.000000e+00  1.000000e+00  0.000000e+00
   outer loop
     vertex  4.142151e+01  5.000000e+00 -9.290882e+01
     vertex  3.679403e+01  5.000000e+00 -9.487486e+01
     vertex -1.800000e+01  5.000000e+00 -5.000000e+01
   endloop
 endfacet
 facet normal  0.000000e+00  1.000000e+00  0.000000e+00
   outer loop
     vertex  4.594577e+01  5.000000e+00 -9.071564e+01
     vertex  4.142151e+01  5.000000e+00 -9.290882e+01
     vertex -1.800000e+01  5.000000e+00 -5.000000e+01
   endloop
 endfacet
 facet normal  0.000000e+00  1.000000e+00  0.000000e+00
   outer loop
     vertex  5.035567e+01  5.000000e+00 -8.830073e+01
     vertex  4.594577e+01  5.000000e+00 -9.071564e+01
     vertex -1.800000e+01  5.000000e+00 -5.000000e+01
   endloop
 endfacet
 facet normal  0.000000e+00  1.000000e+00  0.000000e+00
   outer loop
     vertex  5.464033e+01  5.000000e+00 -8.567003e+01
     vertex  5.035567e+01  5.000000e+00 -8.830073e+01
     vertex -1.800000e+01  5.000000e+00 -5.000000e+01
   endloop
 endfacet
 facet normal  0.000000e+00  1.000000e+00  0.000000e+00
   outer loop
     vertex  5.878922e+01  5.000000e+00 -8.283002e+01
     vertex  5.464033e+01  5.000000e+00 -8.567003e+01
     vertex -1.800000e+01  5.000000e+00 -5.000000e+01
   endloop
 endfacet
 facet normal  0.000000e+00  1.000000e+00  0.000000e+00
   outer loop
     vertex  6.279212e+01  5.000000e+00 -7.978768e+01
     vertex  5.878922e+01  5.000000e+00 -8.283002e+01
     vertex -1.800000e+01  5.000000e+00 -5.000000e+01
   endloop
 endfacet
 facet normal  0.000000e+00  1.000000e+00  0.000000e+00
   outer loop
     vertex  6.663917e+01  5.000000e+00 -7.655053e+01
     vertex  6.279212e+01  5.000000e+00 -7.978768e+01
     vertex -1.800000e+01  5.000000e+00 -5.000000e+01
   endloop
 endfacet
 facet normal  0.000000e+00  1.000000e+00  0.000000e+00
   outer loop
     vertex  7.032089e+01  5.000000e+00 -7.312651e+01
     vertex  6.663917e+01  5.000000e+00 -7.655053e+01
     vertex -1.800000e+01  5.000000e+00 -5.000000e+01
   endloop
 endfacet
 facet normal  0.000000e+00  1.000000e+00  0.000000e+00
   outer loop
     vertex  7.382823e+01  5.000000e+00 -6.952408e+01
     vertex  7.032089e+01  5.000000e+00 -7.312651e+01
     vertex -1.800000e+01  5.000000e+00 -5.000000e+01
   endloop
 endfacet
 facet normal  0.000000e+00  1.000000e+00  0.000000e+00
   outer loop
     vertex  7.715254e+01  5.000000e+00 -6.575208e+01
     vertex  7.382823e+01  5.000000e+00 -6.952408e+01
     vertex -1.800000e+01  5.000000e+00 -5.000000e+01
   endloop
 endfacet
 facet normal  0.000000e+00  1.000000e+00  0.000000e+00
   outer loop
     vertex  8.028563e+01  5.000000e+00 -6.181983e+01
     vertex  7.715254e+01  5.000000e+00 -6.575208e+01
     vertex -1.800000e+01  5.000000e+00 -5.000000e+01
   endloop
 endfacet
 facet normal  0.000000e+00  1.000000e+00  0.000000e+00
   outer loop
     vertex  3.000000e+01  5.000000e+00  3.000000e+01
     vertex  9.467202e+01  5.000000e+00 -3.542749e+01
     vertex  9.283046e+01  5.000000e+00 -4.010590e+01
   endloop
 endfacet
 facet normal  0.000000e+00  1.000000e+00  0.000000e+00
   outer loop
     vertex  3.000000e+01  5.000000e+00  3.000000e+01
     vertex  9.283046e+01  5.000000e+00 -4.010590e+01
     vertex  9.075908e+01  5.000000e+00 -4.468721e+01
   endloop
 endfacet
 facet normal  0.000000e+00  1.000000e+00  0.000000e+00
   outer loop
     vertex  3.000000e+01  5.000000e+00  3.000000e+01
     vertex  9.075908e+01  5.000000e+00 -4.468721e+01
     vertex  8.846299e+01  5.000000e+00 -4.916012e+01
   endloop
 endfacet
 facet normal  0.000000e+00  1.000000e+00  0.000000e+00
   outer loop
     vertex  3.000000e+01  5.000000e+00  3.000000e+01
     vertex  8.028563e+01  5.000000e+00 -6.181983e+01
     vertex -1.800000e+01  5.000000e+00 -5.000000e+01
   endloop
 endfacet
 facet normal  0.000000e+00  1.000000e+00  0.000000e+00
   outer loop
     vertex  3.000000e+01  5.000000e+00  3.000000e+01
     vertex  8.846299e+01  5.000000e+00 -4.916012e+01
     vertex  8.594783e+01  5.000000e+00 -5.351362e+01
   endloop
 endfacet
 facet normal  0.000000e+00  1.000000e+00  0.000000e+00
   outer loop
     vertex  3.000000e+01  5.000000e+00  3.000000e+01
     vertex  8.594783e+01  5.000000e+00 -5.351362e+01
     vertex  8.321981e+01  5.000000e+00 -5.773699e+01
   endloop
 endfacet
 facet normal  0.000000e+00  1.000000e+00  0.000000e+00
   outer loop
     vertex  3.000000e+01  5.000000e+00  3.000000e+01
     vertex  8.321981e+01  5.000000e+00 -5.773699e+01
     vertex  8.028563e+01  5.000000e+00 -6.181983e+01
   endloop
 endfacet
 facet normal  0.000000e+00  1.000000e+00  0.000000e+00
   outer loop
     vertex  9.627923e+01  5.000000e+00 -3.066347e+01
     vertex  9.467202e+01  5.000000e+00 -3.542749e+01
     vertex  3.000000e+01  5.000000e+00  3.000000e+01
   endloop
 endfacet
 facet normal  0.000000e+00  1.000000e+00  0.000000e+00
   outer loop
     vertex  9.764813e+01  5.000000e+00 -2.582559e+01
     vertex  9.627923e+01  5.000000e+00 -3.066347e+01
     vertex  3.000000e+01  5.000000e+00  3.000000e+01
   endloop
 endfacet
 facet normal  0.000000e+00  1.000000e+00  0.000000e+00
   outer loop
     vertex  9.877536e+01  5.000000e+00 -2.092576e+01
     vertex  9.764813e+01  5.000000e+00 -2.582559e+01
     vertex  3.000000e+01  5.000000e+00  3.000000e+01
   endloop
 endfacet
 facet normal  0.000000e+00  1.000000e+00  0.000000e+00
   outer loop
     vertex  9.965813e+01  5.000000e+00 -1.597605e+01
     vertex  9.877536e+01  5.000000e+00 -2.092576e+01
     vertex  3.000000e+01  5.000000e+00  3.000000e+01
   endloop
 endfacet
 facet normal  0.000000e+00  1.000000e+00  0.000000e+00
   outer loop
     vertex  1.002943e+02  5.000000e+00 -1.098864e+01
     vertex  9.965813e+01  5.000000e+00 -1.597605e+01
     vertex  3.000000e+01  5.000000e+00  3.000000e+01
   endloop
 endfacet
 facet normal  0.000000e+00  1.000000e+00  0.000000e+00
   outer loop
     vertex -6.992051e+00  5.000000e+00  1.004465e+02
     vertex  3.000000e+01  5.000000e+00  3.000000e+01
     vertex -1.200000e+01  5.000000e+00  1.000000e+02
   endloop
 endfacet
 facet normal  0.000000e+00  1.000000e+00  0.000000e+00
   outer loop
     vertex  1.006822e+02  5.000000e+00 -5.975808e+00
     vertex  1.002943e+02  5.000000e+00 -1.098864e+01
     vertex  3.000000e+01  5.000000e+00  3.000000e+01
   endloop
 endfacet
 facet normal  0.000000e+00  1.000000e+00  0.000000e+00
   outer loop
     vertex -1.968115e+00  5.000000e+00  1.006441e+02
     vertex  3.000000e+01  5.000000e+00  3.000000e+01
     vertex -6.992051e+00  5.000000e+00  1.004465e+02
   endloop
 endfacet
 facet normal  0.000000e+00  1.000000e+00  0.000000e+00
   outer loop
     vertex  1.008210e+02  5.000000e+00 -9.499057e-01
     vertex  1.006822e+02  5.000000e+00 -5.975808e+00
     vertex  3.000000e+01  5.000000e+00  3.000000e+01
   endloop
 endfacet
 facet normal  0.000000e+00  1.000000e+00  0.000000e+00
   outer loop
     vertex  3.059435e+00  5.000000e+00  1.005922e+02
     vertex  3.000000e+01  5.000000e+00  3.000000e+01
     vertex -1.968115e+00  5.000000e+00  1.006441e+02
   endloop
 endfacet
 facet normal  0.000000e+00  1.000000e+00  0.000000e+00
   outer loop
     vertex  1.007103e+02  5.000000e+00  4.076694e+00
     vertex  1.008210e+02  5.000000e+00 -9.499057e-01
     vertex  3.000000e+01  5.000000e+00  3.000000e+01
   endloop
 endfacet
 facet normal  0.000000e+00  1.000000e+00  0.000000e+00
   outer loop
     vertex  8.078221e+00  5.000000e+00  1.002910e+02
     vertex  3.000000e+01  5.000000e+00  3.000000e+01
     vertex  3.059435e+00  5.000000e+00  1.005922e+02
   endloop
 endfacet
 facet normal  0.000000e+00  1.000000e+00  0.000000e+00
   outer loop
     vertex  1.003504e+02  5.000000e+00  9.091614e+00
     vertex  1.007103e+02  5.000000e+00  4.076694e+00
     vertex  3.000000e+01  5.000000e+00  3.000000e+01
   endloop
 endfacet
 facet normal  0.000000e+00  1.000000e+00  0.000000e+00
   outer loop
     vertex  1.307588e+01  5.000000e+00  9.974112e+01
     vertex  3.000000e+01  5.000000e+00  3.000000e+01
     vertex  8.078221e+00  5.000000e+00  1.002910e+02
   endloop
 endfacet
 facet normal  0.000000e+00  1.000000e+00  0.000000e+00
   outer loop
     vertex  9.974216e+01  5.000000e+00  1.408250e+01
     vertex  1.003504e+02  5.000000e+00  9.091614e+00
     vertex  3.000000e+01  5.000000e+00  3.000000e+01
   endloop
 endfacet
 facet normal  0.000000e+00  1.000000e+00  0.000000e+00
   outer loop
     vertex  1.804012e+01  5.000000e+00  9.894403e+01
     vertex  3.000000e+01  5.000000e+00  3.000000e+01
     vertex  1.307588e+01  5.000000e+00  9.974112e+01
   endloop
 endfacet
 facet normal  0.000000e+00  1.000000e+00  0.000000e+00
   outer loop
     vertex  9.888707e+01  5.000000e+00  1.903708e+01
     vertex  9.974216e+01  5.000000e+00  1.408250e+01
     vertex  3.000000e+01  5.000000e+00  3.000000e+01
   endloop
 endfacet
 facet normal  0.000000e+00  1.000000e+00  0.000000e+00
   outer loop
     vertex  2.295870e+01  5.000000e+00  9.790167e+01
     vertex  3.000000e+01  5.000000e+00  3.000000e+01
     vertex  1.804012e+01  5.000000e+00  9.894403e+01
   endloop
 endfacet
 facet normal  0.000000e+00  1.000000e+00  0.000000e+00
   outer loop
     vertex  9.778726e+01  5.000000e+00  2.394313e+01
     vertex  9.888707e+01  5.000000e+00  1.903708e+01
     vertex  3.000000e+01  5.000000e+00  3.000000e+01
   endloop
 endfacet
 facet normal  0.000000e+00  1.000000e+00  0.000000e+00
   outer loop
     vertex  2.781951e+01  5.000000e+00  9.661659e+01
     vertex  3.000000e+01  5.000000e+00  3.000000e+01
     vertex  2.295870e+01  5.000000e+00  9.790167e+01
   endloop
 endfacet
 facet normal  0.000000e+00  1.000000e+00  0.000000e+00
   outer loop
     vertex  9.644543e+01  5.000000e+00  2.878859e+01
     vertex  9.778726e+01  5.000000e+00  2.394313e+01
     vertex  3.000000e+01  5.000000e+00  3.000000e+01
   endloop
 endfacet
 facet normal  0.000000e+00  1.000000e+00  0.000000e+00
   outer loop
     vertex  3.261060e+01  5.000000e+00  9.509197e+01
     vertex  3.000000e+01  5.000000e+00  3.000000e+01
     vertex  2.781951e+01  5.000000e+00  9.661659e+01
   endloop
 endfacet
 facet normal  0.000000e+00  1.000000e+00  0.000000e+00
   outer loop
     vertex  9.486488e+01  5.000000e+00  3.356151e+01
     vertex  9.644543e+01  5.000000e+00  2.878859e+01
     vertex  3.000000e+01  5.000000e+00  3.000000e+01
   endloop
 endfacet
 facet normal  0.000000e+00  1.000000e+00  0.000000e+00
   outer loop
     vertex  3.732015e+01  5.000000e+00  9.333155e+01
     vertex  3.000000e+01  5.000000e+00  3.000000e+01
     vertex  3.261060e+01  5.000000e+00  9.509197e+01
   endloop
 endfacet
 facet normal  0.000000e+00  1.000000e+00  0.000000e+00
   outer loop
     vertex  9.304950e+01  5.000000e+00  3.825016e+01
     vertex  9.486488e+01  5.000000e+00  3.356151e+01
     vertex  3.000000e+01  5.000000e+00  3.000000e+01
   endloop
 endfacet
 facet normal  0.000000e+00  1.000000e+00  0.000000e+00
   outer loop
     vertex  4.193657e+01  5.000000e+00  9.133967e+01
     vertex  3.000000e+01  5.000000e+00  3.000000e+01
     vertex  3.732015e+01  5.000000e+00  9.333155e+01
   endloop
 endfacet
 facet normal  0.000000e+00  1.000000e+00  0.000000e+00
   outer loop
     vertex  9.100377e+01  5.000000e+00  4.284297e+01
     vertex  9.304950e+01  5.000000e+00  3.825016e+01
     vertex  3.000000e+01  5.000000e+00  3.000000e+01
   endloop
 endfacet
 facet normal  0.000000e+00  1.000000e+00  0.000000e+00
   outer loop
     vertex  4.644850e+01  5.000000e+00  8.912123e+01
     vertex  3.000000e+01  5.000000e+00  3.000000e+01
     vertex  4.193657e+01  5.000000e+00  9.133967e+01
   endloop
 endfacet
 facet normal  0.000000e+00  1.000000e+00  0.000000e+00
   outer loop
     vertex  8.873272e+01  5.000000e+00  4.732865e+01
     vertex  9.100377e+01  5.000000e+00  4.284297e+01
     vertex  3.000000e+01  5.000000e+00  3.000000e+01
   endloop
 endfacet
 facet normal  0.000000e+00  1.000000e+00  0.000000e+00
   outer loop
     vertex  5.084482e+01  5.000000e+00  8.668170e+01
     vertex  3.000000e+01  5.000000e+00  3.000000e+01
     vertex  4.644850e+01  5.000000e+00  8.912123e+01
   endloop
 endfacet
 facet normal  0.000000e+00  1.000000e+00  0.000000e+00
   outer loop
     vertex  8.624194e+01  5.000000e+00  5.169614e+01
     vertex  8.873272e+01  5.000000e+00  4.732865e+01
     vertex  3.000000e+01  5.000000e+00  3.000000e+01
   endloop
 endfacet
 facet normal  0.000000e+00  1.000000e+00  0.000000e+00
   outer loop
     vertex  5.511472e+01  5.000000e+00  8.402708e+01
     vertex  3.000000e+01  5.000000e+00  3.000000e+01
     vertex  5.084482e+01  5.000000e+00  8.668170e+01
   endloop
 endfacet
 facet normal  0.000000e+00  1.000000e+00  0.000000e+00
   outer loop
     vertex  8.353757e+01  5.000000e+00  5.593469e+01
     vertex  8.624194e+01  5.000000e+00  5.169614e+01
     vertex  3.000000e+01  5.000000e+00  3.000000e+01
   endloop
 endfacet
 facet normal  0.000000e+00  1.000000e+00  0.000000e+00
   outer loop
     vertex  5.924766e+01  5.000000e+00  8.116392e+01
     vertex  3.000000e+01  5.000000e+00  3.000000e+01
     vertex  5.511472e+01  5.000000e+00  8.402708e+01
   endloop
 endfacet
 facet normal  0.000000e+00  1.000000e+00  0.000000e+00
   outer loop
     vertex  8.062627e+01  5.000000e+00  6.003387e+01
     vertex  8.353757e+01  5.000000e+00  5.593469e+01
     vertex  3.000000e+01  5.000000e+00  3.000000e+01
   endloop
 endfacet
 facet normal  0.000000e+00  1.000000e+00  0.000000e+00
   outer loop
     vertex  6.323349e+01  5.000000e+00  7.809926e+01
     vertex  3.000000e+01  5.000000e+00  3.000000e+01
     vertex  5.924766e+01  5.000000e+00  8.116392e+01
   endloop
 endfacet
 facet normal  0.000000e+00  1.000000e+00  0.000000e+00
   outer loop
     vertex  7.751521e+01  5.000000e+00  6.398359e+01
     vertex  8.062627e+01  5.000000e+00  6.003387e+01
     vertex  3.000000e+01  5.000000e+00  3.000000e+01
   endloop
 endfacet
 facet normal  0.000000e+00  1.000000e+00  0.000000e+00
   outer loop
     vertex  6.706237e+01  5.000000e+00  7.484064e+01
     vertex  3.000000e+01  5.000000e+00  3.000000e+01
     vertex  6.323349e+01  5.000000e+00  7.809926e+01
   endloop
 endfacet
 facet normal  0.000000e+00  1.000000e+00  0.000000e+00
   outer loop
     vertex  7.421204e+01  5.000000e+00  6.777411e+01
     vertex  7.751521e+01  5.000000e+00  6.398359e+01
     vertex  3.000000e+01  5.000000e+00  3.000000e+01
   endloop
 endfacet
 facet normal  0.000000e+00  1.000000e+00  0.000000e+00
   outer loop
     vertex  7.072490e+01  5.000000e+00  7.139610e+01
     vertex  3.000000e+01  5.000000e+00  3.000000e+01
     vertex  6.706237e+01  5.000000e+00  7.484064e+01
   endloop
 endfacet
 facet normal  0.000000e+00  1.000000e+00  0.000000e+00
   outer loop
     vertex  7.072490e+01  5.000000e+00  7.139610e+01
     vertex  7.421204e+01  5.000000e+00  6.777411e+01
     vertex  3.000000e+01  5.000000e+00  3.000000e+01
   endloop
 endfacet
 facet normal -8.574929e-01  0.000000e+00 -5.144958e-01
   outer loop
     vertex -1.200000e+01 -5.000000e+00  1.000000e+02
     vertex -1.200000e+01  5.000000e+00  1.000000e+02
     vertex  3.000000e+01  5.000000e+00  3.000000e+01
   endloop
 endfacet
 facet normal -8.574929e-01  0.000000e+00 -5.144958e-01
   outer loop
     vertex -1.200000e+01 -5.000000e+00  1.000000e+02
     vertex  3.000000e+01  5.000000e+00  3.000000e+01
     vertex  3.000000e+01 -5.000000e+00  3.000000e+01
   endloop
 endfacet
 facet normal  0.000000e+00 -1.000000e+00  0.000000e+00
   outer loop
     vertex -1.800000e+01 -5.000000e+00 -5.000000e+01
     vertex  2.240725e+01 -5.000000e+00 -9.936462e+01
     vertex  2.727517e+01 -5.000000e+00 -9.810674e+01
   endloop
 endfacet
 facet normal  0.000000e+00 -1.000000e+00  0.000000e+00
   outer loop
     vertex -1.800000e+01 -5.000000e+00 -5.000000e+01
     vertex  1.748292e+01 -5.000000e+00 -1.003795e+02
     vertex  2.240725e+01 -5.000000e+00 -9.936462e+01
   endloop
 endfacet
 facet normal  0.000000e+00 -1.000000e+00  0.000000e+00
   outer loop
     vertex -1.800000e+01 -5.000000e+00 -5.000000e+01
     vertex  1.251430e+01 -5.000000e+00 -1.011488e+02
     vertex  1.748292e+01 -5.000000e+00 -1.003795e+02
   endloop
 endfacet
 facet normal  0.000000e+00 -1.000000e+00  0.000000e+00
   outer loop
     vertex -1.800000e+01 -5.000000e+00 -5.000000e+01
     vertex  7.513645e+00 -5.000000e+00 -1.016707e+02
     vertex  1.251430e+01 -5.000000e+00 -1.011488e+02
   endloop
 endfacet
 facet normal  0.000000e+00 -1.000000e+00  0.000000e+00
   outer loop
     vertex -1.800000e+01 -5.000000e+00 -5.000000e+01
     vertex  2.493254e+00 -5.000000e+00 -1.019439e+02
     vertex  7.513645e+00 -5.000000e+00 -1.016707e+02
   endloop
 endfacet
 facet normal  0.000000e+00 -1.000000e+00  0.000000e+00
   outer loop
     vertex -1.800000e+01 -5.000000e+00 -5.000000e+01
     vertex -2.534509e+00 -5.000000e+00 -1.019676e+02
     vertex  2.493254e+00 -5.000000e+00 -1.019439e+02
   endloop
 endfacet
 facet normal  0.000000e+00 -1.000000e+00  0.000000e+00
   outer loop
     vertex -1.800000e+01 -5.000000e+00 -5.000000e+01
     vertex -7.557261e+00 -5.000000e+00 -1.017420e+02
     vertex -2.534509e+00 -5.000000e+00 -1.019676e+02
   endloop
 endfacet
 facet normal  0.000000e+00 -1.000000e+00  0.000000e+00
   outer loop
     vertex -1.800000e+01 -5.000000e+00 -5.000000e+01
     vertex -1.256264e+01 -5.000000e+00 -1.012675e+02
     vertex -7.557261e+00 -5.000000e+00 -1.017420e+02
   endloop
 endfacet
 facet normal  0.000000e+00 -1.000000e+00  0.000000e+00
   outer loop
     vertex -1.800000e+01 -5.000000e+00 -5.000000e+01
     vertex -1.753831e+01 -5.000000e+00 -1.005452e+02
     vertex -1.256264e+01 -5.000000e+00 -1.012675e+02
   endloop
 endfacet
 facet normal  0.000000e+00 -1.000000e+00 -0.000000e+00
   outer loop
     vertex -1.800000e+01 -5.000000e+00 -5.000000e+01
     vertex -2.247202e+01 -5.000000e+00 -9.957702e+01
     vertex -1.753831e+01 -5.000000e+00 -1.005452e+02
   endloop
 endfacet
 facet normal  0.000000e+00 -1.000000e+00  0.000000e+00
   outer loop
     vertex -1.800000e+01 -5.000000e+00 -5.000000e+01
     vertex -2.735164e+01 -5.000000e+00 -9.836527e+01
     vertex -2.247202e+01 -5.000000e+00 -9.957702e+01
   endloop
 endfacet
 facet normal  0.000000e+00 -1.000000e+00  0.000000e+00
   outer loop
     vertex -1.800000e+01 -5.000000e+00 -5.000000e+01
     vertex -3.216513e+01 -5.000000e+00 -9.691295e+01
     vertex -2.735164e+01 -5.000000e+00 -9.836527e+01
   endloop
 endfacet
 facet normal  0.000000e+00 -1.000000e+00  0.000000e+00
   outer loop
     vertex -1.800000e+01 -5.000000e+00 -5.000000e+01
     vertex -3.690065e+01 -5.000000e+00 -9.522363e+01
     vertex -3.216513e+01 -5.000000e+00 -9.691295e+01
   endloop
 endfacet
 facet normal  0.000000e+00 -1.000000e+00  0.000000e+00
   outer loop
     vertex -1.800000e+01 -5.000000e+00 -5.000000e+01
     vertex -4.154654e+01 -5.000000e+00 -9.330148e+01
     vertex -3.690065e+01 -5.000000e+00 -9.522363e+01
   endloop
 endfacet
 facet normal  0.000000e+00 -1.000000e+00  0.000000e+00
   outer loop
     vertex -1.800000e+01 -5.000000e+00 -5.000000e+01
     vertex -4.609136e+01 -5.000000e+00 -9.115123e+01
     vertex -4.154654e+01 -5.000000e+00 -9.330148e+01
   endloop
 endfacet
 facet normal  0.000000e+00 -1.000000e+00  0.000000e+00
   outer loop
     vertex -1.800000e+01 -5.000000e+00 -5.000000e+01
     vertex -5.052391e+01 -5.000000e+00 -8.877816e+01
     vertex -4.609136e+01 -5.000000e+00 -9.115123e+01
   endloop
 endfacet
 facet normal  0.000000e+00 -1.000000e+00  0.000000e+00
   outer loop
     vertex -1.800000e+01 -5.000000e+00 -5.000000e+01
     vertex -5.483329e+01 -5.000000e+00 -8.618814e+01
     vertex -5.052391e+01 -5.000000e+00 -8.877816e+01
   endloop
 endfacet
 facet normal  0.000000e+00 -1.000000e+00  0.000000e+00
   outer loop
     vertex -1.800000e+01 -5.000000e+00 -5.000000e+01
     vertex -5.900887e+01 -5.000000e+00 -8.338752e+01
     vertex -5.483329e+01 -5.000000e+00 -8.618814e+01
   endloop
 endfacet
 facet normal  0.000000e+00 -1.000000e+00  0.000000e+00
   outer loop
     vertex -1.800000e+01 -5.000000e+00 -5.000000e+01
     vertex -6.304039e+01 -5.000000e+00 -8.038321e+01
     vertex -5.900887e+01 -5.000000e+00 -8.338752e+01
   endloop
 endfacet
 facet normal  0.000000e+00 -1.000000e+00  0.000000e+00
   outer loop
     vertex -1.800000e+01 -5.000000e+00 -5.000000e+01
     vertex -6.691790e+01 -5.000000e+00 -7.718261e+01
     vertex -6.304039e+01 -5.000000e+00 -8.038321e+01
   endloop
 endfacet
 facet normal  0.000000e+00 -1.000000e+00  0.000000e+00
   outer loop
     vertex -1.800000e+01 -5.000000e+00 -5.000000e+01
     vertex -7.063187e+01 -5.000000e+00 -7.379360e+01
     vertex -6.691790e+01 -5.000000e+00 -7.718261e+01
   endloop
 endfacet
 facet normal  0.000000e+00 -1.000000e+00  0.000000e+00
   outer loop
     vertex -1.800000e+01 -5.000000e+00 -5.000000e+01
     vertex -7.417315e+01 -5.000000e+00 -7.022452e+01
     vertex -7.063187e+01 -5.000000e+00 -7.379360e+01
   endloop
 endfacet
 facet normal  0.000000e+00 -1.000000e+00  0.000000e+00
   outer loop
     vertex -1.800000e+01 -5.000000e+00 -5.000000e+01
     vertex -7.753301e+01 -5.000000e+00 -6.648417e+01
     vertex -7.417315e+01 -5.000000e+00 -7.022452e+01
   endloop
 endfacet
 facet normal  0.000000e+00 -1.000000e+00  0.000000e+00
   outer loop
     vertex -1.800000e+01 -5.000000e+00 -5.000000e+01
     vertex -8.070319e+01 -5.000000e+00 -6.258174e+01
     vertex -7.753301e+01 -5.000000e+00 -6.648417e+01
   endloop
 endfacet
 facet normal  0.000000e+00 -1.000000e+00  0.000000e+00
   outer loop
     vertex -1.800000e+01 -5.000000e+00 -5.000000e+01
     vertex -8.367588e+01 -5.000000e+00 -5.852686e+01
     vertex -8.070319e+01 -5.000000e+00 -6.258174e+01
   endloop
 endfacet
 facet normal  0.000000e+00 -1.000000e+00  0.000000e+00
   outer loop
     vertex -1.800000e+01 -5.000000e+00 -5.000000e+01
     vertex -8.644375e+01 -5.000000e+00 -5.432950e+01
     vertex -8.367588e+01 -5.000000e+00 -5.852686e+01
   endloop
 endfacet
 facet normal  0.000000e+00 -1.000000e+00  0.000000e+00
   outer loop
     vertex -1.800000e+01 -5.000000e+00 -5.000000e+01
     vertex -8.900000e+01 -5.000000e+00 -5.000000e+01
     vertex -8.644375e+01 -5.000000e+00 -5.432950e+01
   endloop
 endfacet
 facet normal -0.000000e+00 -1.000000e+00  0.000000e+00
   outer loop
     vertex  3.207471e+01 -5.000000e+00 -9.660892e+01
     vertex -1.800000e+01 -5.000000e+00 -5.000000e+01
     vertex  2.727517e+01 -5.000000e+00 -9.810674e+01
   endloop
 endfacet
 facet normal -0.000000e+00 -1.000000e+00  0.000000e+00
   outer loop
     vertex  3.679403e+01 -5.000000e+00 -9.487486e+01
     vertex -1.800000e+01 -5.000000e+00 -5.000000e+01
     vertex  3.207471e+01 -5.000000e+00 -9.660892e+01
   endloop
 endfacet
 facet normal -0.000000e+00 -1.000000e+00  0.000000e+00
   outer loop
     vertex  4.142151e+01 -5.000000e+00 -9.290882e+01
     vertex -1.800000e+01 -5.000000e+00 -5.000000e+01
     vertex  3.679403e+01 -5.000000e+00 -9.487486e+01
   endloop
 endfacet
 facet normal -0.000000e+00 -1.000000e+00  0.000000e+00
   outer loop
     vertex  4.594577e+01 -5.000000e+00 -9.071564e+01
     vertex -1.800000e+01 -5.000000e+00 -5.000000e+01
     vertex  4.142151e+01 -5.000000e+00 -9.290882e+01
   endloop
 endfacet
 facet normal -0.000000e+00 -1.000000e+00  0.000000e+00
   outer loop
     vertex  5.035567e+01 -5.000000e+00 -8.830073e+01
     vertex -1.800000e+01 -5.000000e+00 -5.000000e+01
     vertex  4.594577e+01 -5.000000e+00 -9.071564e+01
   endloop
 endfacet
 facet normal -0.000000e+00 -1.000000e+00  0.000000e+00
   outer loop
     vertex  5.464033e+01 -5.000000e+00 -8.567003e+01
     vertex -1.800000e+01 -5.000000e+00 -5.000000e+01
     vertex  5.035567e+01 -5.000000e+00 -8.830073e+01
   endloop
 endfacet
 facet normal -0.000000e+00 -1.000000e+00  0.000000e+00
   outer loop
     vertex  5.878922e+01 -5.000000e+00 -8.283002e+01
     vertex -1.800000e+01 -5.000000e+00 -5.000000e+01
     vertex  5.464033e+01 -5.000000e+00 -8.567003e+01
   endloop
 endfacet
 facet normal -0.000000e+00 -1.000000e+00  0.000000e+00
   outer loop
     vertex  6.279212e+01 -5.000000e+00 -7.978768e+01
     vertex -1.800000e+01 -5.000000e+00 -5.000000e+01
     vertex  5.878922e+01 -5.000000e+00 -8.283002e+01
   endloop
 endfacet
 facet normal -0.000000e+00 -1.000000e+00  0.000000e+00
   outer loop
     vertex  6.663917e+01 -5.000000e+00 -7.655053e+01
     vertex -1.800000e+01 -5.000000e+00 -5.000000e+01
     vertex  6.279212e+01 -5.000000e+00 -7.978768e+01
   endloop
 endfacet
 facet normal -0.000000e+00 -1.000000e+00  0.000000e+00
   outer loop
     vertex  7.032089e+01 -5.000000e+00 -7.312651e+01
     vertex -1.800000e+01 -5.000000e+00 -5.000000e+01
     vertex  6.663917e+01 -5.000000e+00 -7.655053e+01
   endloop
 endfacet
 facet normal -0.000000e+00 -1.000000e+00  0.000000e+00
   outer loop
     vertex  7.382823e+01 -5.000000e+00 -6.952408e+01
     vertex -1.800000e+01 -5.000000e+00 -5.000000e+01
     vertex  7.032089e+01 -5.000000e+00 -7.312651e+01
   endloop
 endfacet
 facet normal -0.000000e+00 -1.000000e+00  0.000000e+00
   outer loop
     vertex  7.715254e+01 -5.000000e+00 -6.575208e+01
     vertex -1.800000e+01 -5.000000e+00 -5.000000e+01
     vertex  7.382823e+01 -5.000000e+00 -6.952408e+01
   endloop
 endfacet
 facet normal -0.000000e+00 -1.000000e+00  0.000000e+00
   outer loop
     vertex  8.028563e+01 -5.000000e+00 -6.181983e+01
     vertex -1.800000e+01 -5.000000e+00 -5.000000e+01
     vertex  7.715254e+01 -5.000000e+00 -6.575208e+01
   endloop
 endfacet
 facet normal  0.000000e+00 -1.000000e+00  0.000000e+00
   outer loop
     vertex  3.000000e+01 -5.000000e+00  3.000000e+01
     vertex  9.283046e+01 -5.000000e+00 -4.010590e+01
     vertex  9.467202e+01 -5.000000e+00 -3.542749e+01
   endloop
 endfacet
 facet normal  0.000000e+00 -1.000000e+00  0.000000e+00
   outer loop
     vertex  3.000000e+01 -5.000000e+00  3.000000e+01
     vertex  9.075908e+01 -5.000000e+00 -4.468721e+01
     vertex  9.283046e+01 -5.000000e+00 -4.010590e+01
   endloop
 endfacet
 facet normal  0.000000e+00 -1.000000e+00  0.000000e+00
   outer loop
     vertex  3.000000e+01 -5.000000e+00  3.000000e+01
     vertex  8.846299e+01 -5.000000e+00 -4.916012e+01
     vertex  9.075908e+01 -5.000000e+00 -4.468721e+01
   endloop
 endfacet
 facet normal  0.000000e+00 -1.000000e+00 -0.000000e+00
   outer loop
     vertex  3.000000e+01 -5.000000e+00  3.000000e+01
     vertex -1.800000e+01 -5.000000e+00 -5.000000e+01
     vertex  8.028563e+01 -5.000000e+00 -6.181983e+01
   endloop
 endfacet
 facet normal  0.000000e+00 -1.000000e+00  0.000000e+00
   outer loop
     vertex  3.000000e+01 -5.000000e+00  3.000000e+01
     vertex  8.594783e+01 -5.000000e+00 -5.351362e+01
     vertex  8.846299e+01 -5.000000e+00 -4.916012e+01
   endloop
 endfacet
 facet normal  0.000000e+00 -1.000000e+00  0.000000e+00
   outer loop
     vertex  3.000000e+01 -5.000000e+00  3.000000e+01
     vertex  8.321981e+01 -5.000000e+00 -5.773699e+01
     vertex  8.594783e+01 -5.000000e+00 -5.351362e+01
   endloop
 endfacet
 facet normal  0.000000e+00 -1.000000e+00  0.000000e+00
   outer loop
     vertex  3.000000e+01 -5.000000e+00  3.000000e+01
     vertex  8.028563e+01 -5.000000e+00 -6.181983e+01
     vertex  8.321981e+01 -5.000000e+00 -5.773699e+01
   endloop
 endfacet
 facet normal -0.000000e+00 -1.000000e+00  0.000000e+00
   outer loop
     vertex  9.627923e+01 -5.000000e+00 -3.066347e+01
     vertex  3.000000e+01 -5.000000e+00  3.000000e+01
     vertex  9.467202e+01 -5.000000e+00 -3.542749e+01
   endloop
 endfacet
 facet normal -0.000000e+00 -1.000000e+00  0.000000e+00
   outer loop
     vertex  9.764813e+01 -5.000000e+00 -2.582559e+01
     vertex  3.000000e+01 -5.000000e+00  3.000000e+01
     vertex  9.627923e+01 -5.000000e+00 -3.066347e+01
   endloop
 endfacet
 facet normal -0.000000e+00 -1.000000e+00  0.000000e+00
   outer loop
     vertex  9.877536e+01 -5.000000e+00 -2.092576e+01
     vertex  3.000000e+01 -5.000000e+00  3.000000e+01
     vertex  9.764813e+01 -5.000000e+00 -2.582559e+01
   endloop
 endfacet
 facet normal -0.000000e+00 -1.000000e+00  0.000000e+00
   outer loop
     vertex  9.965813e+01 -5.000000e+00 -1.597605e+01
     vertex  3.000000e+01 -5.000000e+00  3.000000e+01
     vertex  9.877536e+01 -5.000000e+00 -2.092576e+01
   endloop
 endfacet
 facet normal -0.000000e+00 -1.000000e+00  0.000000e+00
   outer loop
     vertex  1.002943e+02 -5.000000e+00 -1.098864e+01
     vertex  3.000000e+01 -5.000000e+00  3.000000e+01
     vertex  9.965813e+01 -5.000000e+00 -1.597605e+01
   endloop
 endfacet
 facet normal  0.000000e+00 -1.000000e+00 -0.000000e+00
   outer loop
     vertex -6.992051e+00 -5.000000e+00  1.004465e+02
     vertex -1.200000e+01 -5.000000e+00  1.000000e+02
     vertex  3.000000e+01 -5.000000e+00  3.000000e+01
   endloop
 endfacet
 facet normal -0.000000e+00 -1.000000e+00  0.000000e+00
   outer loop
     vertex  1.006822e+02 -5.000000e+00 -5.975808e+00
     vertex  3.000000e+01 -5.000000e+00  3.000000e+01
     vertex  1.002943e+02 -5.000000e+00 -1.098864e+01
   endloop
 endfacet
 facet normal  0.000000e+00 -1.000000e+00 -0.000000e+00
   outer loop
     vertex -1.968115e+00 -5.000000e+00  1.006441e+02
     vertex -6.992051e+00 -5.000000e+00  1.004465e+02
     vertex  3.000000e+01 -5.000000e+00  3.000000e+01
   endloop
 endfacet
 facet normal -0.000000e+00 -1.000000e+00  0.000000e+00
   outer loop
     vertex  1.008210e+02 -5.000000e+00 -9.499057e-01
     vertex  3.000000e+01 -5.000000e+00  3.000000e+01
     vertex  1.006822e+02 -5.000000e+00 -5.975808e+00
   endloop
 endfacet
 facet normal -0.000000e+00 -1.000000e+00 -0.000000e+00
   outer loop
     vertex  3.059435e+00 -5.000000e+00  1.005922e+02
     vertex -1.968115e+00 -5.000000e+00  1.006441e+02
     vertex  3.000000e+01 -5.000000e+00  3.000000e+01
   endloop
 endfacet
 facet normal -0.000000e+00 -1.000000e+00 -0.000000e+00
   outer loop
     vertex  1.007103e+02 -5.000000e+00  4.076694e+00
     vertex  3.000000e+01 -5.000000e+00  3.000000e+01
     vertex  1.008210e+02 -5.000000e+00 -9.499057e-01
   endloop
 endfacet
 facet normal -0.000000e+00 -1.000000e+00 -0.000000e+00
   outer loop
     vertex  8.078221e+00 -5.000000e+00  1.002910e+02
     vertex  3.059435e+00 -5.000000e+00  1.005922e+02
     vertex  3.000000e+01 -5.000000e+00  3.000000e+01
   endloop
 endfacet
 facet normal -0.000000e+00 -1.000000e+00 -0.000000e+00
   outer loop
     vertex  1.003504e+02 -5.000000e+00  9.091614e+00
     vertex  3.000000e+01 -5.000000e+00  3.000000e+01
     vertex  1.007103e+02 -5.000000e+00  4.076694e+00
   endloop
 endfacet
 facet normal -0.000000e+00 -1.000000e+00 -0.000000e+00
   outer loop
     vertex  1.307588e+01 -5.000000e+00  9.974112e+01
     vertex  8.078221e+00 -5.000000e+00  1.002910e+02
     vertex  3.000000e+01 -5.000000e+00  3.000000e+01
   endloop
 endfacet
 facet normal -0.000000e+00 -1.000000e+00 -0.000000e+00
   outer loop
     vertex  9.974216e+01 -5.000000e+00  1.408250e+01
     vertex  3.000000e+01 -5.000000e+00  3.000000e+01
     vertex  1.003504e+02 -5.000000e+00  9.091614e+00
   endloop
 endfacet
 facet normal -0.000000e+00 -1.000000e+00 -0.000000e+00
   outer loop
     vertex  1.804012e+01 -5.000000e+00  9.894403e+01
     vertex  1.307588e+01 -5.000000e+00  9.974112e+01
     vertex  3.000000e+01 -5.000000e+00  3.000000e+01
   endloop
 endfacet
 facet normal -0.000000e+00 -1.000000e+00 -0.000000e+00
   outer loop
     vertex  9.888707e+01 -5.000000e+00  1.903708e+01
     vertex  3.000000e+01 -5.000000e+00  3.000000e+01
     vertex  9.974216e+01 -5.000000e+00  1.408250e+01
   endloop
 endfacet
 facet normal -0.000000e+00 -1.000000e+00 -0.000000e+00
   outer loop
     vertex  2.295870e+01 -5.000000e+00  9.790167e+01
     vertex  1.804012e+01 -5.000000e+00  9.894403e+01
     vertex  3.000000e+01 -5.000000e+00  3.000000e+01
   endloop
 endfacet
 facet normal -0.000000e+00 -1.000000e+00 -0.000000e+00
   outer loop
     vertex  9.778726e+01 -5.000000e+00  2.394313e+01
     vertex  3.000000e+01 -5.000000e+00  3.000000e+01
     vertex  9.888707e+01 -5.000000e+00  1.903708e+01
   endloop
 endfacet
 facet normal -0.000000e+00 -1.000000e+00 -0.000000e+00
   outer loop
     vertex  2.781951e+01 -5.000000e+00  9.661659e+01
     vertex  2.295870e+01 -5.000000e+00  9.790167e+01
     vertex  3.000000e+01 -5.000000e+00  3.000000e+01
   endloop
 endfacet
 facet normal -0.000000e+00 -1.000000e+00 -0.000000e+00
   outer loop
     vertex  9.644543e+01 -5.000000e+00  2.878859e+01
     vertex  3.000000e+01 -5.000000e+00  3.000000e+01
     vertex  9.778726e+01 -5.000000e+00  2.394313e+01
   endloop
 endfacet
 facet normal -0.000000e+00 -1.000000e+00  0.000000e+00
   outer loop
     vertex  3.261060e+01 -5.000000e+00  9.509197e+01
     vertex  2.781951e+01 -5.000000e+00  9.661659e+01
     vertex  3.000000e+01 -5.000000e+00  3.000000e+01
   endloop
 endfacet
 facet normal  0.000000e+00 -1.000000e+00 -0.000000e+00
   outer loop
     vertex  9.486488e+01 -5.000000e+00  3.356151e+01
     vertex  3.000000e+01 -5.000000e+00  3.000000e+01
     vertex  9.644543e+01 -5.000000e+00  2.878859e+01
   endloop
 endfacet
 facet normal -0.000000e+00 -1.000000e+00  0.000000e+00
   outer loop
     vertex  3.732015e+01 -5.000000e+00  9.333155e+01
     vertex  3.261060e+01 -5.000000e+00  9.509197e+01
     vertex  3.000000e+01 -5.000000e+00  3.000000e+01
   endloop
 endfacet
 facet normal  0.000000e+00 -1.000000e+00 -0.000000e+00
   outer loop
     vertex  9.304950e+01 -5.000000e+00  3.825016e+01
     vertex  3.000000e+01 -5.000000e+00  3.000000e+01
     vertex  9.486488e+01 -5.000000e+00  3.356151e+01
   endloop
 endfacet
 facet normal -0.000000e+00 -1.000000e+00  0.000000e+00
   outer loop
     vertex  4.193657e+01 -5.000000e+00  9.133967e+01
     vertex  3.732015e+01 -5.000000e+00  9.333155e+01
     vertex  3.000000e+01 -5.000000e+00  3.000000e+01
   endloop
 endfacet
 facet normal  0.000000e+00 -1.000000e+00 -0.000000e+00
   outer loop
     vertex  9.100377e+01 -5.000000e+00  4.284297e+01
     vertex  3.000000e+01 -5.000000e+00  3.000000e+01
     vertex  9.304950e+01 -5.000000e+00  3.825016e+01
   endloop
 endfacet
 facet normal -0.000000e+00 -1.000000e+00  0.000000e+00
   outer loop
     vertex  4.644850e+01 -5.000000e+00  8.912123e+01
     vertex  4.193657e+01 -5.000000e+00  9.133967e+01
     vertex  3.000000e+01 -5.000000e+00  3.000000e+01
   endloop
 endfacet
 facet normal  0.000000e+00 -1.000000e+00 -0.000000e+00
   outer loop
     vertex  8.873272e+01 -5.000000e+00  4.732865e+01
     vertex  3.000000e+01 -5.000000e+00  3.000000e+01
     vertex  9.100377e+01 -5.000000e+00  4.284297e+01
   endloop
 endfacet
 facet normal -0.000000e+00 -1.000000e+00  0.000000e+00
   outer loop
     vertex  5.084482e+01 -5.000000e+00  8.668170e+01
     vertex  4.644850e+01 -5.000000e+00  8.912123e+01
     vertex  3.000000e+01 -5.000000e+00  3.000000e+01
   endloop
 endfacet
 facet normal  0.000000e+00 -1.000000e+00 -0.000000e+00
   outer loop
     vertex  8.624194e+01 -5.000000e+00  5.169614e+01
     vertex  3.000000e+01 -5.000000e+00  3.000000e+01
     vertex  8.873272e+01 -5.000000e+00  4.732865e+01
   endloop
 endfacet
 facet normal -0.000000e+00 -1.000000e+00  0.000000e+00
   outer loop
     vertex  5.511472e+01 -5.000000e+00  8.402708e+01
     vertex  5.084482e+01 -5.000000e+00  8.668170e+01
     vertex  3.000000e+01 -5.000000e+00  3.000000e+01
   endloop
 endfacet
 facet normal  0.000000e+00 -1.000000e+00 -0.000000e+00
   outer loop
     vertex  8.353757e+01 -5.000000e+00  5.593469e+01
     vertex  3.000000e+01 -5.000000e+00  3.000000e+01
     vertex  8.624194e+01 -5.000000e+00  5.169614e+01
   endloop
 endfacet
 facet normal -0.000000e+00 -1.000000e+00  0.000000e+00
   outer loop
     vertex  5.924766e+01 -5.000000e+00  8.116392e+01
     vertex  5.511472e+01 -5.000000e+00  8.402708e+01
     vertex  3.000000e+01 -5.000000e+00  3.000000e+01
   endloop
 endfacet
 facet normal  0.000000e+00 -1.000000e+00 -0.000000e+00
   outer loop
     vertex  8.062627e+01 -5.000000e+00  6.003387e+01
     vertex  3.000000e+01 -5.000000e+00  3.000000e+01
     vertex  8.353757e+01 -5.000000e+00  5.593469e+01
   endloop
 endfacet
 facet normal -0.000000e+00 -1.000000e+00  0.000000e+00
   outer loop
     vertex  6.323349e+01 -5.000000e+00  7.809926e+01
     vertex  5.924766e+01 -5.000000e+00  8.116392e+01
     vertex  3.000000e+01 -5.000000e+00  3.000000e+01
   endloop
 endfacet
 facet normal  0.000000e+00 -1.000000e+00 -0.000000e+00
   outer loop
     vertex  7.751521e+01 -5.000000e+00  6.398359e+01
     vertex  3.000000e+01 -5.000000e+00  3.000000e+01
     vertex  8.062627e+01 -5.000000e+00  6.003387e+01
   endloop
 endfacet
 facet normal -0.000000e+00 -1.000000e+00  0.000000e+00
   outer loop
     vertex  6.706237e+01 -5.000000e+00  7.484064e+01
     vertex  6.323349e+01 -5.000000e+00  7.809926e+01
     vertex  3.000000e+01 -5.000000e+00  3.000000e+01
   endloop
 endfacet
 facet normal  0.000000e+00 -1.000000e+00 -0.000000e+00
   outer loop
     vertex  7.421204e+01 -5.000000e+00  6.777411e+01
     vertex  3.000000e+01 -5.000000e+00  3.000000e+01
     vertex  7.751521e+01 -5.000000e+00  6.398359e+01
   endloop
 endfacet
 facet normal -0.000000e+00 -1.000000e+00  0.000000e+00
   outer loop
     vertex  7.072490e+01 -5.000000e+00  7.139610e+01
     vertex  6.706237e+01 -5.000000e+00  7.484064e+01
     vertex  3.000000e+01 -5.000000e+00  3.000000e+01
   endloop
 endfacet
 facet normal  0.000000e+00 -1.000000e+00 -0.000000e+00
   outer loop
     vertex  7.072490e+01 -5.000000e+00  7.139610e+01
     vertex  3.000000e+01 -5.000000e+00  3.000000e+01
     vertex  7.421204e+01 -5.000000e+00  6.777411e+01
   endloop
 endfacet
endsolid
